<svg width="281" height="115" viewBox="0 0 281 115" fill="none" xmlns="http://www.w3.org/2000/svg">
<path fill-rule="evenodd" clip-rule="evenodd" d="M90.3849 50.4678C100.584 50.6832 110.782 50.8987 120.981 50.8987V63.7394C112.415 63.8423 103.808 64.0793 95.1601 64.3176C89.6715 64.4687 84.1664 64.6204 78.6448 64.7385C81.3734 67.4318 84.0927 70.1337 86.8119 72.8355C93.8351 79.8138 100.858 86.7916 108.039 93.6193L98.4883 102.698C92.3534 97.0114 86.0887 91.3916 79.7947 85.7456C75.9087 82.2597 72.0116 78.7638 68.1269 75.236C68.0549 78.7958 67.9717 82.3555 67.8884 85.9151C67.6618 95.6101 67.4351 105.305 67.4351 115H53.9284C53.82 106.853 53.5704 98.6668 53.3197 90.4419C53.1654 85.3804 53.0107 80.3043 52.8881 75.2139C48.965 78.7768 45.029 82.3062 41.1045 85.8252C34.8379 91.4443 28.6008 97.0371 22.4927 102.698L12.9418 93.6193C20.0576 86.8541 27.0147 79.9379 33.972 73.0213C36.7513 70.2584 39.5306 67.4953 42.3201 64.7419C36.7728 64.6232 31.242 64.4698 25.728 64.3169C17.111 64.078 8.53491 63.8402 0 63.7377V50.8987C10.0692 50.8987 20.1375 50.6841 30.2062 50.4696C34.0761 50.3871 37.946 50.3046 41.816 50.2343C38.1141 46.5497 34.4456 42.8532 30.7877 39.1674C24.844 33.1783 18.9282 27.2173 12.9418 21.3807L22.4927 12.302C29.587 19.0444 36.84 25.6367 44.0928 32.2289C47.0227 34.892 49.9526 37.555 52.872 40.2279C52.9967 34.933 53.1584 29.6535 53.3197 24.3898C53.5699 16.2213 53.819 8.09084 53.9266 0H67.4333C67.4333 9.53497 67.6586 19.0691 67.8839 28.6036C67.9753 32.4715 68.0666 36.3394 68.143 40.2075C70.9511 37.6376 73.768 35.0762 76.585 32.5149C83.9391 25.8281 91.2932 19.1415 98.4883 12.302L108.041 21.3807C102.039 27.2307 96.1072 33.2055 90.1476 39.2087C86.5001 42.883 82.842 46.5678 79.1507 50.2411C82.8955 50.3096 86.6402 50.3887 90.3849 50.4678ZM158.56 35.5732C158.56 35.5732 163.434 40.2069 170.66 40.2069C173.793 40.2069 176.492 38.8832 176.492 36.4007C176.492 33.8536 172.951 32.4739 168.737 30.8322C162.546 28.4205 154.904 25.4435 154.904 17.37C154.904 9.5079 162.305 4.95752 171.881 4.95752C181.891 4.95752 186.765 9.75598 186.765 9.75598L182.674 17.5348C182.674 17.5348 178.582 13.8935 171.793 13.8935C168.92 13.8935 166.135 15.0506 166.135 17.6996C166.135 20.0745 169.564 21.3845 173.689 22.9602C179.914 25.3382 187.724 28.3215 187.724 36.484C187.724 43.5168 181.281 49.1445 170.749 49.1445C159.693 49.1445 153.512 42.9391 153.512 42.9391L158.56 35.5732ZM207.673 5.95227H196.617V48.1546H207.673V5.95227ZM233.255 40.2069C226.03 40.2069 221.155 35.5732 221.155 35.5732L216.105 42.9391C216.105 42.9391 222.285 49.1445 233.341 49.1445C243.873 49.1445 250.316 43.5168 250.316 36.484C250.316 28.3215 242.506 25.3382 236.281 22.9602C232.156 21.3845 228.727 20.0745 228.727 17.6996C228.727 15.0506 231.512 13.8935 234.385 13.8935C241.176 13.8935 245.267 17.5348 245.267 17.5348L249.359 9.75598C249.359 9.75598 244.485 4.95752 234.474 4.95752C224.898 4.95752 217.5 9.5079 217.5 17.37C217.5 25.4435 225.142 28.4205 231.332 30.8322C235.546 32.4739 239.088 33.8536 239.088 36.4007C239.088 38.8832 236.389 40.2069 233.255 40.2069ZM157.3 66.1701C157.3 66.1701 158.551 67.3748 160.303 67.3748C161.404 67.3748 162.337 66.7886 162.337 65.7249C162.337 64.6174 161.148 64.1244 159.856 63.5885C158.317 62.9503 156.631 62.2513 156.631 60.381C156.631 58.636 158.215 57.2562 160.435 57.2562C162.62 57.2562 163.773 58.3811 163.773 58.3811L163.022 59.6826C163.022 59.6826 161.937 58.7141 160.435 58.7141C159.184 58.7141 158.299 59.4601 158.299 60.347C158.299 61.3752 159.424 61.825 160.675 62.3253C162.241 62.9518 164.005 63.6573 164.005 65.6773C164.005 67.4071 162.604 68.8344 160.267 68.8344C157.765 68.8344 156.363 67.3595 156.363 67.3595L157.3 66.1701ZM170.051 57.4447H171.702V68.6423H170.051V57.4447ZM178.612 66.1701C178.612 66.1701 179.864 67.3748 181.616 67.3748C182.717 67.3748 183.65 66.7886 183.65 65.7249C183.65 64.6174 182.461 64.1244 181.169 63.5885C179.63 62.9503 177.944 62.2513 177.944 60.381C177.944 58.636 179.528 57.2562 181.748 57.2562C183.932 57.2562 185.085 58.3811 185.085 58.3811L184.334 59.6826C184.334 59.6826 183.249 58.7141 181.748 58.7141C180.497 58.7141 179.612 59.4601 179.612 60.347C179.612 61.3752 180.736 61.825 181.987 62.3253C183.553 62.9518 185.318 63.6573 185.318 65.6773C185.318 67.4071 183.916 68.8344 181.58 68.8344C179.077 68.8344 177.676 67.3595 177.676 67.3595L178.612 66.1701ZM189.84 58.8091H193.878V68.644H195.53V58.8091H199.568V57.4447H189.84V58.8091ZM204.918 57.4447H211.759V58.8091H206.57V62.3145H210.79V63.679H206.57V67.2795H212.043V68.6423H204.918V57.4447ZM220.486 57.4447H218.752L217.801 68.6423H219.452L220.019 61.5839C220.071 60.9008 220.053 59.9017 220.053 59.9017H220.083C220.083 59.9017 220.452 60.9807 220.718 61.5839L223.053 66.6287H224.522L226.874 61.5839C227.159 60.9654 227.509 59.934 227.509 59.934H227.543C227.543 59.934 227.509 60.9008 227.559 61.5839L228.144 68.6423H229.777L228.828 57.4447H227.092L224.39 63.504C224.123 64.1225 223.807 65.0111 223.807 65.0111H223.773C223.773 65.0111 223.455 64.1225 223.188 63.504L220.486 57.4447ZM242.128 65.4223H237.689L236.522 68.6423H234.82L239.059 57.4447H240.794L245.033 68.6423H243.315L242.128 65.4223ZM239.909 58.9842C239.909 58.9842 239.643 60.0003 239.441 60.5712L238.122 64.1242H241.693L240.392 60.5712C240.192 60.0003 239.942 58.9842 239.942 58.9842H239.909ZM157.277 76.4806H158.929V87.6781H157.277V76.4806ZM165.791 76.4806H167.425L172.664 83.7615C173.098 84.3648 173.649 85.3792 173.649 85.3792H173.683C173.683 85.3792 173.567 84.38 173.567 83.7615V76.4806H175.218V87.6781H173.599L168.343 80.4142C167.911 79.7957 167.359 78.7813 167.359 78.7813H167.325C167.325 78.7813 167.443 79.7804 167.443 80.4142V87.6781H165.791V76.4806ZM180.594 77.845H184.634V87.6781H186.284V77.845H190.323V76.4806H180.594V77.845ZM195.672 76.4806H202.511V77.845H197.322V81.3504H201.544V82.7132H197.322V86.3137H202.795V87.6781H195.672V76.4806ZM218.322 77.6355C218.322 77.6355 216.854 76.2881 214.033 76.2881C210.598 76.2881 208.027 78.8266 208.027 82.0636C208.027 85.4874 210.646 87.8679 213.817 87.8679C216.152 87.8679 217.437 86.5035 217.437 86.5035H217.471C217.471 86.5035 217.453 86.7397 217.453 86.9793V87.6759H218.905V82.0466H215.483V83.4093H217.403V85.0269C217.403 85.0269 216.102 86.4237 214.066 86.4237C211.597 86.4237 209.727 84.631 209.727 82.0296C209.727 79.6338 211.397 77.7154 214.166 77.7154C216.168 77.7154 217.487 78.8097 217.487 78.8097L218.322 77.6355ZM225.172 76.4806H228.776C230.011 76.4806 230.527 76.5757 230.978 76.7338C232.179 77.162 232.964 78.2885 232.964 79.7634C232.964 81.1907 232.129 82.3954 230.844 82.793V82.8236C230.844 82.8236 230.978 82.9663 231.194 83.3317L233.697 87.6781H231.829L229.342 83.2212H226.824V87.6781H225.172V76.4806ZM229.194 81.8568C230.479 81.8568 231.28 81.0803 231.28 79.8263C231.28 79.0022 230.946 78.4142 230.345 78.0965C230.029 77.9368 229.644 77.8433 228.726 77.8433H226.824V81.8551H229.194V81.8568ZM240.943 84.4582H245.382L246.569 87.6781H248.286L244.048 76.4806H242.312L238.074 87.6781H239.776L240.943 84.4582ZM242.695 79.6071C242.897 79.0361 243.163 78.02 243.163 78.02H243.196C243.196 78.02 243.446 79.0361 243.646 79.6071L244.947 83.16H241.376L242.695 79.6071ZM253.695 76.4806H257.599C261.203 76.4806 263.573 78.5264 263.573 82.0641C263.573 85.6153 261.203 87.6781 257.599 87.6781H253.695V76.4806ZM257.481 86.3137C260.134 86.3137 261.87 84.8235 261.87 82.0641C261.87 79.3199 260.116 77.845 257.481 77.845H255.345V86.3137H257.481ZM280.999 81.9973C280.999 78.7774 278.364 76.2881 274.959 76.2881C271.553 76.2881 268.902 78.7774 268.902 81.9973C268.902 85.2954 271.553 87.8662 274.959 87.8662C278.364 87.8662 280.999 85.2954 280.999 81.9973ZM279.297 81.999C279.297 84.5206 277.361 86.4237 274.959 86.4237C272.556 86.4237 270.604 84.5206 270.604 81.999C270.604 79.5573 272.556 77.7171 274.959 77.7171C277.361 77.7171 279.297 79.5573 279.297 81.999ZM157.277 95.5126H161.181C164.785 95.5126 167.154 97.5584 167.154 101.096C167.154 104.647 164.783 106.71 161.181 106.71H157.277V95.5126ZM161.065 105.346C163.718 105.346 165.454 103.856 165.454 101.096C165.454 98.3519 163.7 96.877 161.065 96.877H158.929V105.346H161.065ZM180.124 95.5126H173.285V106.71H180.409V105.347H174.935V101.747H179.157V100.382H174.935V96.877H180.124V95.5126ZM194.511 104.238C194.511 104.238 195.762 105.443 197.514 105.443C198.615 105.443 199.548 104.856 199.548 103.793C199.548 102.685 198.359 102.192 197.067 101.656C195.528 101.018 193.842 100.319 193.842 98.4488C193.842 96.7037 195.426 95.324 197.646 95.324C199.831 95.324 200.984 96.4488 200.984 96.4488L200.233 97.7504C200.233 97.7504 199.148 96.7819 197.646 96.7819C196.395 96.7819 195.51 97.5278 195.51 98.4148C195.51 99.443 196.635 99.8928 197.885 100.393C199.452 101.02 201.216 101.725 201.216 103.745C201.216 105.475 199.815 106.902 197.478 106.902C194.976 106.902 193.574 105.427 193.574 105.427L194.511 104.238ZM208.67 103.49H213.108L214.295 106.71H216.013L211.775 95.5126H210.039L205.801 106.71H207.503L208.67 103.49ZM210.422 98.6391C210.624 98.0681 210.89 97.052 210.89 97.052H210.922C210.922 97.052 211.172 98.0681 211.373 98.6391L212.674 102.192H209.102L210.422 98.6391ZM221.422 95.5126H223.074V105.347H228.347V106.71H221.422V95.5126ZM235.191 95.5143H233.539V102.744C233.539 105.235 235.425 106.9 238.178 106.9C240.931 106.9 242.816 105.235 242.816 102.744V95.5126H241.165V102.714C241.165 104.459 239.98 105.458 238.16 105.458C236.358 105.458 235.191 104.459 235.191 102.746V95.5143ZM249.531 95.5126H253.435C257.039 95.5126 259.407 97.5584 259.407 101.096C259.407 104.647 257.037 106.71 253.435 106.71H249.531V95.5126ZM253.319 105.346C255.972 105.346 257.707 103.856 257.707 101.096C257.707 98.3519 255.954 96.877 253.319 96.877H251.183V105.346H253.319Z" fill="#ffffff"/>
</svg>
