<svg width="270" height="71" viewBox="0 0 270 71" fill="none" xmlns="http://www.w3.org/2000/svg">
<path fill-rule="evenodd" clip-rule="evenodd" d="M26.8736 3.15315C26.7059 3.50383 26.5631 3.79637 26.5563 3.80324C26.5495 3.81025 26.2257 3.86268 25.8368 3.91979C25.4479 3.97704 25.1255 4.02757 25.1206 4.0321C25.1155 4.03663 25.3443 4.27207 25.6291 4.55512L26.1468 5.06982L26.025 5.78782C25.9581 6.18275 25.9097 6.50582 25.9176 6.50582C25.9254 6.50582 26.2164 6.35626 26.5641 6.17325C26.912 5.99039 27.2091 5.84492 27.2245 5.84989C27.2399 5.855 27.5275 6.00587 27.8638 6.18523C28.1999 6.36473 28.4806 6.50582 28.4876 6.49895C28.4944 6.49209 28.4449 6.16493 28.3777 5.77204L28.2553 5.05755L28.7771 4.55614C29.064 4.28039 29.2915 4.04744 29.2825 4.03838C29.2735 4.02933 28.9839 3.98201 28.6389 3.93308C28.2939 3.88415 27.9772 3.83654 27.9352 3.82719C27.875 3.81375 27.7899 3.67193 27.5367 3.16279C27.3595 2.80686 27.2064 2.51562 27.1965 2.51562C27.1865 2.51562 27.0411 2.80247 26.8736 3.15315ZM17.5483 5.57531C17.3806 5.92642 17.2392 6.21794 17.2341 6.22306C17.2289 6.22817 16.9067 6.2787 16.5179 6.33537C16.129 6.3919 15.8062 6.44287 15.8006 6.44856C15.7949 6.45426 16.023 6.69131 16.3076 6.97538L16.8248 7.49183L16.7137 8.13286C16.5587 9.02758 16.5036 8.98099 17.2468 8.58504L17.874 8.25087L18.5303 8.59322C19.1772 8.9306 19.1863 8.93411 19.167 8.83757C19.1563 8.78367 19.0992 8.45578 19.0401 8.10876L18.9328 7.47795L19.451 6.97421C19.736 6.69715 19.9624 6.46361 19.9541 6.45528C19.9458 6.44696 19.627 6.39336 19.2456 6.33625C18.7995 6.26936 18.5397 6.21561 18.5174 6.18537C18.4982 6.15952 18.3532 5.86858 18.1952 5.53879C18.0372 5.20886 17.8956 4.93851 17.8807 4.93807C17.8657 4.93749 17.7162 5.22419 17.5483 5.57531ZM36.1488 5.58495C35.9715 5.94147 35.815 6.23313 35.8012 6.23313C35.7324 6.23372 34.4274 6.43557 34.4154 6.44754C34.4079 6.45514 34.6347 6.69028 34.9193 6.96998L35.4369 7.47868L35.3168 8.18587C35.2508 8.57496 35.2106 8.89321 35.2274 8.89321C35.2442 8.89321 35.5364 8.74731 35.8769 8.56912L36.4957 8.24503L37.1063 8.56912C37.7417 8.90636 37.8089 8.93265 37.7812 8.83348C37.7719 8.80062 37.7154 8.48441 37.6556 8.13081L37.5469 7.48774L38.0644 6.96632C38.5696 6.45733 38.5796 6.44447 38.4842 6.42549C38.4305 6.41483 38.1119 6.3659 37.7764 6.31682C37.4192 6.26468 37.152 6.20962 37.1321 6.18406C37.1135 6.16011 36.9685 5.87034 36.8101 5.54026C36.6515 5.21017 36.5105 4.93939 36.4966 4.93851C36.4826 4.93764 36.3263 5.22858 36.1488 5.58495ZM43.3466 11.4306L43.0205 12.0876L42.3309 12.1834C41.9518 12.2361 41.6298 12.2897 41.6154 12.3023C41.6012 12.315 41.8235 12.5494 42.1097 12.8234L42.6299 13.3214L42.511 14.0228C42.4457 14.4085 42.4012 14.7333 42.4123 14.7444C42.4234 14.7557 42.7117 14.6159 43.0527 14.4339L43.6729 14.103L43.9455 14.2426C44.0955 14.3194 44.383 14.4688 44.5846 14.5747C44.786 14.6805 44.9569 14.7609 44.9643 14.7533C44.9717 14.7459 44.924 14.4256 44.8583 14.0418L44.7388 13.3436L45.2497 12.8337C45.5308 12.5533 45.7493 12.3139 45.7354 12.3018C45.7215 12.2898 45.403 12.2361 45.0279 12.1826L44.3457 12.0855L44.0277 11.4414C43.8528 11.0871 43.7013 10.7919 43.6912 10.7853C43.681 10.7789 43.5259 11.0691 43.3466 11.4306ZM10.4635 11.4407C10.2958 11.7914 10.1553 12.0817 10.1511 12.0858C10.147 12.09 9.85369 12.1343 9.4994 12.1841C9.14512 12.2341 8.819 12.2858 8.77472 12.2992C8.70038 12.3217 8.73508 12.3635 9.21961 12.8337L9.74508 13.3439L9.63037 14.0089C9.56721 14.3746 9.51959 14.6984 9.52452 14.7284C9.53135 14.7704 9.67669 14.7066 10.1659 14.4463L10.7983 14.1098L11.4368 14.4494C11.7877 14.6361 12.0799 14.784 12.0858 14.778C12.0916 14.7722 12.041 14.4471 11.973 14.0556L11.8496 13.3439L12.3648 12.8386C12.6482 12.5606 12.8725 12.3259 12.8635 12.3167C12.8491 12.3024 11.557 12.099 11.4799 12.099C11.4639 12.099 11.3108 11.8074 11.1394 11.4511C10.9682 11.0947 10.8146 10.803 10.7982 10.803C10.7818 10.803 10.6311 11.09 10.4635 11.4407ZM27.1372 12.2441C27.1047 12.3478 27.0336 12.5167 26.979 12.6195L26.8798 12.8063L26.9796 12.9024C27.0932 13.0119 27.1108 13.0734 27.0137 13.021C26.886 12.9523 26.7516 12.9794 26.6566 13.0928C26.5367 13.2363 26.5514 13.3597 26.6971 13.433L26.8066 13.4881L26.7368 13.5516C26.6848 13.5989 26.672 13.6404 26.6867 13.7143C26.7003 13.783 26.671 13.9043 26.5914 14.1073C26.5283 14.2689 26.387 14.6696 26.2778 14.998L26.079 15.5948L26.0811 16.3963C26.0824 16.9221 26.0973 17.2473 26.1246 17.3423L26.1663 17.4869L25.2286 19.0646C24.7129 19.9323 24.2868 20.6469 24.2819 20.6526C24.277 20.6583 23.4602 19.8164 22.4669 18.7819C20.5715 16.8079 20.5987 16.8413 20.8831 16.8402C21.1728 16.839 21.2522 16.5244 20.9861 16.4318C20.7868 16.3626 20.6743 16.4074 20.5808 16.5938C20.4972 16.7606 20.4562 16.7363 20.4877 16.5385C20.5088 16.4062 20.5069 16.4033 20.3783 16.3624C20.3062 16.3395 20.1215 16.2533 19.9676 16.1708C19.6659 16.009 19.6502 16.0084 19.7604 16.1642C19.8004 16.2204 19.867 16.3744 19.9085 16.5063L19.984 16.7458L20.1211 16.7582C20.4808 16.7908 20.5131 16.8913 20.2948 17.2983C20.1491 17.57 20.1499 17.6278 20.299 17.6754C20.4315 17.7178 20.4095 18.2665 20.2217 19.5959C20.1076 20.4034 20.0786 21.8869 20.1555 22.967L20.1803 23.3137L20.0443 23.2293C19.9695 23.1828 19.874 23.1279 19.832 23.1073C19.7901 23.0867 19.7553 23.0531 19.7549 23.0327C19.7545 23.0122 19.3044 22.7209 18.7546 22.3851C18.2051 22.0495 17.7554 21.755 17.7554 21.7306C17.7554 21.7064 17.8313 21.6221 17.9243 21.5432C18.1572 21.3458 18.3919 20.6833 18.209 20.7399C18.1026 20.7728 17.7078 20.8617 17.7017 20.854C17.5644 20.6837 17.8122 19.8858 17.988 19.932C18.2059 19.9894 19.0404 19.1257 19.1962 18.6815C19.3211 18.3255 19.2421 17.8841 19.0818 18.0417C19.058 18.0653 19.0664 18.0346 19.1005 17.9738C19.1423 17.899 19.1879 17.8631 19.2409 17.863C19.4298 17.8624 19.5371 17.6363 19.4019 17.5235C19.2514 17.3978 18.9994 17.5926 19.1011 17.7562C19.1333 17.8082 18.9225 18.1697 18.8599 18.1697C18.8537 18.1697 18.7941 18.1926 18.7275 18.2207L18.6062 18.2715L18.5663 18.0672C18.5444 17.9547 18.5165 17.8627 18.5043 17.8627C18.4245 17.8627 18.0535 18.3111 17.9823 18.4938C17.9385 18.6062 17.8618 18.7632 17.812 18.8426C17.7094 19.0061 17.6957 19.1918 17.7593 19.5597C17.8087 19.8446 17.6407 20.2222 17.385 20.4009C17.3025 20.4586 17.1457 20.5797 17.0365 20.6698L16.8382 20.8338L16.7872 20.7113C16.7593 20.644 16.6972 20.5011 16.6491 20.3939L16.562 20.199L16.5205 20.3354C16.4975 20.4103 16.4071 20.597 16.3192 20.75C15.9998 21.3065 15.9811 21.8374 16.268 22.1992C16.4258 22.3982 16.4126 23.1466 16.2417 23.6937C16.2263 23.743 16.2025 23.7117 16.0092 23.3877C15.9719 23.3252 15.8947 23.2191 15.8376 23.1519C15.7804 23.0847 15.6663 22.9183 15.5839 22.7824C15.5016 22.6464 15.4247 22.5351 15.4129 22.5351C15.3824 22.5351 15.0769 23.2649 15.0769 23.3379C15.0769 23.3857 15.0508 23.3729 14.9584 23.2798C14.721 23.0412 14.6059 23.032 14.6015 23.2513C14.6005 23.2982 14.5863 23.4885 14.5697 23.6743C14.491 24.562 14.9464 25.3086 15.7692 25.6408L16.077 25.7649L16.0998 26.1708C16.1125 26.394 16.1462 26.7217 16.1746 26.8992C16.2391 27.2989 16.2282 27.3179 16.13 26.9776C16.0373 26.6558 15.8447 26.4533 15.4248 26.2355C15.1897 26.1137 15.1508 26.0789 15.0599 25.9114L14.9581 25.7239L14.9407 26.2184C14.9311 26.4904 14.9333 26.7628 14.9457 26.8238C14.9729 26.9591 14.9891 26.9596 14.7186 26.8152C14.4078 26.6494 14.2947 26.6519 14.3206 26.8238C14.5169 28.132 15.1189 28.7986 16.2183 28.9255C16.4313 28.9501 16.6239 28.9886 16.6464 29.0113C16.6796 29.0447 16.9823 30.0722 16.959 30.0722C16.9552 30.0722 16.9041 30.0482 16.8456 30.0189C16.7871 29.9894 16.5941 29.9361 16.4169 29.9001C16.2398 29.8644 15.9464 29.797 15.7649 29.7507C15.3844 29.6536 15.3801 29.6545 15.4964 29.8077C15.5755 29.9121 15.755 30.3329 15.755 30.4141C15.755 30.4338 15.5983 30.4474 15.3706 30.4474C14.8896 30.4474 14.8966 30.4197 15.2792 30.813C15.5359 31.0769 15.6205 31.1894 15.6846 31.3512C15.8253 31.7074 16.0129 31.989 16.3435 32.3403L16.6644 32.6813L17.2353 32.7003C17.9135 32.7228 17.9793 32.7459 18.2796 33.0664C18.4708 33.2708 18.4605 33.3108 18.2536 33.1665C18.1055 33.0632 18.1049 33.2093 18.2511 33.7183C18.278 33.8122 18.1515 33.8062 17.9481 33.7041C17.8014 33.6305 17.7892 33.6378 17.7897 33.7982C17.7901 34.0184 17.9245 34.268 18.1766 34.5166C18.2992 34.6375 18.3996 34.7513 18.3996 34.7694C18.3996 34.8192 17.7375 34.9264 17.5835 34.9016C17.3369 34.862 17.5125 35.0525 17.9237 35.2707C18.0455 35.3354 18.2136 35.4587 18.2971 35.5447C18.6089 35.8656 19.521 36.0822 19.9713 35.9422C20.0992 35.9025 20.2348 35.8701 20.2728 35.8701C20.3109 35.8701 20.4885 35.8026 20.6676 35.7202C20.8468 35.6377 21.0708 35.5473 21.1657 35.5191L21.338 35.4679L21.6235 35.637C21.7803 35.73 22.0766 35.8926 22.2817 35.998L22.6547 36.1901L22.3495 36.2525C22.1816 36.2866 21.9338 36.3179 21.7986 36.3217C21.6352 36.3264 21.5528 36.3423 21.5528 36.3692C21.5528 36.412 21.796 36.7353 21.8564 36.7729C21.9709 36.8441 21.7054 36.8974 21.2361 36.8974C21.0537 36.8974 21.0103 36.9078 21.0103 36.9509C21.0103 37.02 21.4039 37.4026 21.5645 37.4897C21.7302 37.5794 21.7226 37.5938 21.485 37.6409C21.373 37.6629 21.2815 37.6943 21.2815 37.7105C21.2815 37.7589 21.5893 37.9714 21.8596 38.1095L22.1121 38.2385L22.6377 38.2401C22.9268 38.2411 23.3844 38.2552 23.6548 38.2715L24.1464 38.3012L24.6042 38.119C25.0335 37.9483 25.0779 37.9217 25.3185 37.6918C25.6925 37.3344 25.7624 37.3061 26.1905 37.3369C26.7162 37.3747 26.6817 37.4226 25.9604 37.6581C25.3028 37.8725 25.1024 38.0007 24.3414 38.6933C23.9857 39.017 23.9857 39.0167 24.4262 38.991C24.9434 38.9609 24.919 38.9721 25.1331 38.6648C25.3247 38.3895 25.4011 38.3305 25.7586 38.1807L25.8789 38.1301L25.8143 38.3218C25.7281 38.5772 25.7499 38.8595 25.8756 39.118C25.9678 39.3072 26.2061 39.5841 26.1477 39.434C26.0951 39.299 26.0909 39.2216 26.1284 39.0817C26.1738 38.9118 26.1747 38.9117 26.3815 39.0436C26.5814 39.1711 26.5907 39.1639 26.4975 38.9533C26.2425 38.3774 26.7387 37.5398 27.2744 37.6419C27.7902 37.7403 27.9881 37.8833 27.9923 38.1607C28.0035 38.9104 28.4034 39.6804 28.5741 39.2812C28.6624 39.0747 28.6345 39.0748 28.8391 39.2806C29.078 39.5209 29.1667 39.5191 29.0437 39.2765C29.0052 39.2007 28.9528 39.0211 28.9271 38.8772C28.9014 38.7332 28.8567 38.5388 28.8278 38.445C28.7989 38.3513 28.7751 38.2708 28.7749 38.2664C28.7709 38.1789 29.1106 38.4519 29.2343 38.6356C29.4582 38.9683 29.4453 38.9618 29.9221 38.9886C30.402 39.0157 30.3953 39.0265 30.0819 38.732C29.4155 38.1057 29.0929 37.8874 28.566 37.7061C28.1117 37.5499 27.7735 37.3707 27.9329 37.3707C27.9808 37.3707 28.0849 37.3477 28.1642 37.3195C28.4641 37.2131 28.7198 37.3124 29.1111 37.6874C29.3535 37.9198 29.3938 37.9438 29.8334 38.1177L30.2988 38.302L30.7657 38.273C31.0226 38.2569 31.4795 38.2423 31.7814 38.2404L32.3301 38.2372L32.5781 38.1097C33.0719 37.856 33.2318 37.6999 33.0381 37.6609C32.9774 37.6486 32.8778 37.623 32.8165 37.6039L32.705 37.5691L32.8506 37.4722C33.0336 37.3502 33.3856 37.0014 33.3856 36.9421C33.3856 36.9099 33.3231 36.8974 33.1598 36.8974C32.8672 36.8974 32.5041 36.858 32.5041 36.8263C32.5041 36.8127 32.5348 36.7734 32.5726 36.7391C32.6424 36.6756 32.8431 36.3865 32.8431 36.3496C32.8431 36.3385 32.7249 36.3258 32.5803 36.3213C32.4358 36.3169 32.1881 36.2859 32.03 36.2523L31.7423 36.1914L32.1657 35.9672C32.3988 35.844 32.6909 35.6805 32.8152 35.604C33.0818 35.4398 33.0965 35.4413 33.6334 35.6869C33.8164 35.7706 34.0495 35.8546 34.1518 35.8736C34.254 35.8926 34.3999 35.9303 34.4761 35.9573C34.6777 36.0289 34.9328 36.0178 35.2561 35.9236C35.7829 35.7701 35.9348 35.6982 36.1318 35.5099C36.2344 35.4119 36.3787 35.3065 36.4523 35.2758C36.6003 35.214 36.9457 34.9584 36.9457 34.9105C36.9457 34.8939 36.8857 34.8899 36.8124 34.9016C36.6591 34.9263 35.9962 34.8194 35.9962 34.7699C35.9962 34.7521 36.1038 34.6257 36.2352 34.4895C36.4882 34.2271 36.6066 33.9984 36.6066 33.7723C36.6066 33.6337 36.595 33.6309 36.3984 33.7208C36.3171 33.7579 36.2178 33.7885 36.1779 33.789L36.1051 33.7897L36.1693 33.582C36.2611 33.2858 36.2468 32.9823 36.1487 33.142C36.1371 33.1608 36.0804 33.2008 36.0227 33.2309C35.9322 33.2779 35.9451 33.2546 36.1162 33.0624C36.3971 32.7463 36.5317 32.6991 37.1606 32.6959C37.7534 32.693 37.6968 32.7183 38.0999 32.2773C38.3964 31.9529 38.46 31.8598 38.6444 31.4804C38.8328 31.093 38.881 31.0233 39.137 30.7699C39.4872 30.423 39.4977 30.4514 39.015 30.44L38.6094 30.4303L38.7231 30.1467C38.7856 29.9906 38.8717 29.8257 38.9143 29.7801C39.0185 29.6685 38.9928 29.6565 38.7749 29.7155C38.6732 29.743 38.3718 29.8115 38.1051 29.8677C37.8384 29.9241 37.5729 29.9946 37.5153 30.0246C37.4324 30.0677 37.4142 30.0693 37.4283 30.0322C37.4382 30.0063 37.5035 29.7707 37.5735 29.5086C37.7282 28.9287 37.6737 28.9847 38.1366 28.9301C39.1302 28.8128 39.7615 28.2426 39.9767 27.2684C40.1159 26.6377 40.0988 26.6049 39.7258 26.7883C39.404 26.9466 39.4206 26.944 39.4429 26.8313C39.4538 26.7762 39.4517 26.5067 39.438 26.2324L39.4133 25.7337L39.3233 25.9164C39.2418 26.0814 39.2098 26.1106 38.9915 26.2184C38.6934 26.3656 38.3525 26.6589 38.3059 26.8082C38.2872 26.8684 38.2546 26.9843 38.2337 27.066C38.171 27.3105 38.161 27.2043 38.215 26.8685C38.2427 26.6957 38.276 26.3782 38.2888 26.1631C38.3148 25.7259 38.2941 25.7579 38.6243 25.6417C39.4813 25.3398 39.9205 24.495 39.7943 23.3915C39.7512 23.0137 39.7171 22.9991 39.4614 23.2487L39.3272 23.3796L39.2858 23.2405C39.263 23.1641 39.1839 22.9702 39.11 22.8098C38.957 22.4777 38.9787 22.4748 38.7533 22.859C38.6872 22.9716 38.5854 23.1187 38.5269 23.186C38.4684 23.2532 38.39 23.3594 38.3527 23.4219C38.3153 23.4844 38.2509 23.5906 38.2092 23.6578L38.1334 23.7799L38.1321 23.6777C38.1314 23.6213 38.0943 23.3901 38.0499 23.1637C37.9468 22.6389 37.9776 22.3671 38.1671 22.1298L38.2848 21.9823V21.5827V21.1831L38.0458 20.7072L37.8069 20.2312L37.6776 20.529L37.5484 20.8267L37.3233 20.6459C37.1995 20.5464 37.0522 20.4386 36.9961 20.4062C36.8041 20.2955 36.594 19.8654 36.6209 19.6385C36.6917 19.0429 36.6942 19.0659 36.5249 18.7346C36.4394 18.5669 36.3692 18.4099 36.3692 18.3855C36.3692 18.3372 35.937 17.8627 35.8928 17.8627C35.8779 17.8627 35.8465 17.9478 35.8234 18.0518C35.8004 18.156 35.7723 18.2467 35.7613 18.2535C35.6467 18.3248 35.2219 17.8776 35.2874 17.7544C35.3748 17.5904 35.2326 17.4504 35.0305 17.5015C34.8418 17.5491 34.9122 17.8627 35.1117 17.8627C35.178 17.8627 35.2264 17.89 35.2649 17.949C35.32 18.0338 35.3196 18.0349 35.2394 18.0147C35.1085 17.9816 35.0733 18.2328 35.1612 18.5734C35.2033 18.7368 35.2026 18.7513 35.1526 18.731C35.1226 18.7187 34.9701 18.7003 34.8139 18.6899L34.53 18.6711L34.6868 18.8288C34.7729 18.9154 34.8435 19.0074 34.8435 19.0333C34.8435 19.1231 35.046 19.3608 35.2239 19.4796C35.3224 19.5454 35.4642 19.6461 35.5391 19.7034C35.6689 19.8026 36.0703 19.9073 36.3758 19.9217C36.5338 19.9292 36.7504 20.3551 36.7216 20.6016C36.6904 20.8692 36.6936 20.8673 36.3877 20.794C36.0662 20.717 36.0899 20.7004 36.1501 20.9603C36.2162 21.2451 36.3099 21.4207 36.4553 21.5323C36.7003 21.7202 36.7353 21.6821 35.6868 22.3692C35.1626 22.7127 34.7266 23.0125 34.7179 23.0356C34.7011 23.0799 34.3728 23.3033 34.3572 23.2813C34.3521 23.2741 34.3678 22.7926 34.3918 22.2111C34.4432 20.9723 34.4311 20.6437 34.2957 19.568C34.2401 19.1272 34.186 18.5282 34.1754 18.2369L34.1563 17.7073L34.2493 17.6648C34.3444 17.6211 34.3545 17.5397 34.2852 17.3768C34.2643 17.3275 34.2777 17.317 34.361 17.317C34.5042 17.317 34.5506 17.245 34.5294 17.0559C34.5116 16.8976 34.4718 16.8495 34.318 16.8013C34.2665 16.7852 34.2838 16.774 34.3898 16.755C34.5267 16.7305 34.5303 16.7261 34.5868 16.5204C34.6184 16.4052 34.6822 16.2457 34.7285 16.166C34.8297 15.9914 34.832 15.9919 34.5898 16.1387C34.4831 16.2034 34.314 16.2903 34.2142 16.3319L34.0327 16.4075L34.0527 16.5553C34.0664 16.6548 34.0603 16.7032 34.0345 16.7032C34.0132 16.7032 33.9958 16.6814 33.9958 16.6547C33.9958 16.4779 33.7668 16.3612 33.5615 16.4332C33.3532 16.5063 33.394 16.7876 33.6182 16.8236C33.6861 16.8346 33.7782 16.8511 33.8229 16.8605L33.9042 16.8775L33.7853 17.0034C33.72 17.0728 33.1201 17.7434 32.4524 18.4936C30.2015 21.0228 30.2863 20.9308 30.2456 20.8873C30.1749 20.8116 27.6388 16.5203 27.6148 16.436C27.5997 16.3829 27.6091 16.326 27.6403 16.2812C27.7417 16.1356 27.6257 14.8242 27.4904 14.587C27.4282 14.4783 27.5275 13.9362 27.6354 13.7942L27.7339 13.6648L27.6244 13.5512C27.5149 13.4375 27.5149 13.4375 27.6022 13.4543C27.7202 13.4771 27.859 13.3815 27.859 13.2775C27.859 13.1793 27.7064 12.9864 27.6271 12.9843C27.5617 12.9826 27.3433 12.5541 27.2541 12.2519L27.1962 12.0557L27.1372 12.2441ZM26.9798 13.1063C27.0959 13.1666 27.0411 13.3048 26.8844 13.3474C26.7083 13.3955 26.6211 13.2668 26.7419 13.1375C26.8335 13.0392 26.8476 13.0375 26.9798 13.1063ZM27.701 13.1431C27.8724 13.3153 27.6954 13.4286 27.4564 13.2997C27.319 13.2256 27.3168 13.2003 27.441 13.1181C27.5672 13.0344 27.5958 13.0372 27.701 13.1431ZM27.1997 13.9248C27.2344 14.1551 27.0664 15.0158 26.9049 15.4356C26.6643 16.0611 26.6408 16.1366 26.6396 16.283C26.6388 16.3852 26.6026 16.4863 26.5113 16.6408L26.3842 16.8562L26.3729 16.737C26.3665 16.6715 26.367 16.403 26.3735 16.1404L26.3855 15.663L26.6319 14.9328C26.8486 14.2909 26.9276 14.0924 27.0905 13.7813C27.1383 13.6901 27.1708 13.7329 27.1997 13.9248ZM27.5534 15.9424C27.5541 16.1597 27.5152 16.1924 27.4414 16.0367C27.3894 15.927 27.3894 15.9104 27.4422 15.7992C27.5134 15.6488 27.5526 15.6992 27.5534 15.9424ZM20.9572 16.4977C21.1475 16.5705 21.0359 16.7375 20.7745 16.7712L20.6119 16.7921L20.6411 16.688C20.6913 16.5089 20.806 16.4398 20.9572 16.4977ZM33.8251 16.5391C33.8631 16.5802 33.8942 16.6249 33.8942 16.6386C33.8942 16.6523 33.9035 16.6878 33.9148 16.7175C33.9314 16.7608 33.9099 16.7714 33.8036 16.7714C33.5676 16.7714 33.4169 16.5726 33.5975 16.4996C33.7147 16.4522 33.7503 16.4584 33.8251 16.5391ZM27.3735 17.1689C27.3651 17.1774 27.2731 17.1796 27.1692 17.1739L26.9803 17.1635L27.0841 16.9961L27.1879 16.8286L27.2884 16.991C27.3436 17.0804 27.3819 17.1604 27.3735 17.1689ZM34.3821 16.9179C34.4854 16.9938 34.4731 17.1954 34.3643 17.2081C34.2588 17.2203 34.1314 17.0817 34.1314 16.9544C34.1314 16.861 34.2761 16.8399 34.3821 16.9179ZM27.439 17.3373C27.4785 17.348 27.5429 17.4144 27.5823 17.485L27.6541 17.6134L27.4599 17.5815C27.3531 17.564 27.1468 17.5582 27.0013 17.5688L26.7369 17.5879L26.8126 17.4526L26.8884 17.317L27.1279 17.3175C27.2596 17.3177 27.3996 17.3267 27.439 17.3373ZM22.0045 18.7711L22.1301 18.9122L22.0965 19.2998C22.0515 19.821 21.9936 21.0846 21.9897 21.6313C21.9862 22.1174 22.0443 22.4552 22.2853 23.3476C22.4242 23.8621 22.4331 23.7795 22.1985 24.1623L22.1105 24.3058L21.3315 23.83C20.9031 23.5681 20.5336 23.3263 20.5104 23.2922C20.3679 23.0835 20.3852 20.7207 20.5374 19.602C20.648 18.7884 20.7094 17.9985 20.6813 17.7539C20.6335 17.3392 20.6501 17.3464 21.294 18.0192C21.6156 18.3552 21.9354 18.6936 22.0045 18.7711ZM33.9761 19.4739C34.1232 20.5955 34.1342 20.8451 34.0915 22.0747C34.0702 22.6937 34.0414 23.2316 34.0276 23.27C34.0072 23.3276 32.5666 24.3076 32.4184 24.3648C32.3584 24.3879 32.1624 24.0362 32.1977 23.9689C32.2487 23.8716 32.4367 23.1728 32.5463 22.673C32.6725 22.0979 32.6845 21.5124 32.6008 20.0284C32.5764 19.5969 32.5562 19.1583 32.5558 19.0535L32.5549 18.863L33.1991 18.1375L33.8434 17.4121L33.8656 18.1063C33.8792 18.5304 33.9222 19.0627 33.9761 19.4739ZM27.6222 17.7591C27.7559 17.7936 27.9268 17.9716 27.9268 18.0766C27.9268 18.0837 27.8163 18.0603 27.681 18.0246C27.3951 17.9493 26.8689 17.9589 26.5952 18.0447L26.4333 18.0953L26.5072 17.9705C26.5479 17.9018 26.5987 17.8262 26.6202 17.8024C26.7157 17.6963 27.2826 17.6718 27.6222 17.7591ZM27.7996 18.2027C27.9255 18.2423 28.0455 18.2932 28.0661 18.316C28.1196 18.3746 33.7862 27.9043 33.7751 27.917C33.7316 27.967 33.0263 27.4686 32.7535 27.1952C32.5803 27.0214 32.3503 26.8196 32.2424 26.7465C32.1345 26.6735 31.961 26.5337 31.8568 26.4359C31.741 26.3272 31.6154 26.244 31.534 26.2219C31.4608 26.2022 31.3095 26.1301 31.198 26.0617C30.935 25.9005 30.7594 25.8775 30.577 25.9806C30.4043 26.0784 30.2288 26.0388 29.9259 25.8341C29.6495 25.6475 29.4452 25.6392 29.189 25.8044C29.0193 25.9137 29.0075 25.9165 28.9283 25.8642C28.8827 25.8342 28.7215 25.764 28.5702 25.7085C28.419 25.653 28.2238 25.5561 28.1365 25.493C27.8621 25.2948 27.6313 25.2499 27.3957 25.349L27.2734 25.4004L27.2951 25.2419C27.3068 25.1547 27.3166 24.6405 27.3166 24.0992C27.3166 23.1847 27.3208 23.1148 27.3759 23.1142C27.4086 23.1137 27.5015 23.0831 27.5826 23.0461L27.7299 22.9789L27.7074 22.7996C27.5974 21.9231 26.8439 21.4 26.6208 22.0449C26.5502 22.2488 26.5691 22.3305 26.6868 22.3305C26.7709 22.3305 26.771 22.3308 26.7218 22.4711C26.6947 22.5485 26.6725 22.6474 26.6725 22.6908C26.6725 22.7343 26.6572 22.7793 26.6385 22.7908C26.5001 22.877 26.6868 23.0975 26.929 23.1341L27.0793 23.1567V23.341C27.0793 23.5247 27.0789 23.5253 26.9861 23.5036C26.1352 23.3045 25.8278 22.2998 26.4403 21.7194C27.1513 21.0453 28.2329 21.5012 28.2322 22.4745C28.2319 22.9432 27.7932 23.4844 27.4098 23.4893C27.3706 23.4898 27.3511 23.516 27.3523 23.5668C27.3558 23.7094 27.674 25.0366 27.7073 25.0472C27.8155 25.0817 27.8178 24.9981 27.7199 24.5836C27.665 24.3508 27.6254 24.1442 27.6319 24.1244C27.6385 24.1047 27.662 24.1611 27.6841 24.2498C27.71 24.3532 27.7429 24.4109 27.7758 24.4109C27.8602 24.4109 27.8645 24.3349 27.7919 24.1228C27.6766 23.786 27.734 23.8757 27.9785 24.4151C28.1069 24.6983 28.2328 24.938 28.2582 24.9477C28.3855 24.9968 28.3605 24.8791 28.1481 24.4282C27.8764 23.8519 27.8804 23.8174 28.1618 24.3095C28.3617 24.6591 28.434 24.7347 28.487 24.6485C28.4989 24.6291 28.3922 24.4104 28.2499 24.1624C28.1076 23.9146 28.006 23.727 28.0241 23.7459C28.0424 23.7646 28.2198 23.9947 28.4186 24.2574C28.7476 24.692 28.8658 24.8004 28.8997 24.6984C28.9062 24.6784 28.8112 24.5249 28.6887 24.3574C28.5073 24.1097 28.494 24.084 28.6175 24.2194C28.7195 24.3313 28.787 24.3793 28.8228 24.3654C28.9126 24.3308 28.8883 24.2901 28.5297 23.8745L28.1831 23.473L28.7334 23.9796C29.1109 24.3272 29.3003 24.4798 29.3367 24.4656C29.4314 24.4291 29.375 24.3583 28.9271 23.9508C28.3456 23.4216 28.3123 23.386 28.5642 23.5616C28.7415 23.6851 28.7832 23.7019 28.8095 23.6598C28.8578 23.583 28.8528 23.5743 28.702 23.4739C28.6248 23.4225 28.577 23.3707 28.5956 23.3585C28.6505 23.3229 28.7452 23.1158 28.7231 23.0797C28.7119 23.0616 28.7171 23.0467 28.7347 23.0467C28.7816 23.0467 28.8096 22.9104 28.7629 22.9093C28.7412 22.9087 28.7504 22.8925 28.7831 22.8733C28.8156 22.8544 28.8423 22.8164 28.8423 22.7892C28.8423 22.7619 28.8156 22.7385 28.7831 22.7371C28.7357 22.7349 28.734 22.7304 28.7745 22.7149C28.8276 22.6946 28.8748 22.6385 28.8757 22.5948C28.876 22.5807 28.8343 22.5669 28.7831 22.5641L28.6897 22.559L28.7831 22.5447C28.9368 22.5214 28.9098 22.4001 28.7491 22.393L28.6219 22.3873L28.7491 22.3738C28.8191 22.3665 28.876 22.3499 28.8757 22.3369C28.8747 22.2872 28.8226 22.2354 28.7575 22.219C28.6959 22.2035 28.6968 22.2016 28.7661 22.198C28.8183 22.1952 28.8423 22.1727 28.8423 22.1258C28.8423 22.079 28.8183 22.0563 28.7661 22.0537C28.7086 22.0506 28.7045 22.0458 28.7491 22.0341C28.8191 22.0157 28.8246 21.9773 28.7661 21.9151C28.7427 21.8903 28.7237 21.8393 28.7237 21.8019C28.7237 21.7572 28.7026 21.7353 28.6631 21.7385C28.618 21.7423 28.6116 21.7325 28.6383 21.7002C28.7131 21.6095 28.6238 21.511 28.5371 21.5887C28.4972 21.6244 28.4961 21.6224 28.5308 21.5759C28.6075 21.4733 28.5275 21.3696 28.4355 21.4522C28.3949 21.4885 28.3945 21.486 28.4328 21.4352C28.5176 21.3225 28.4124 21.2523 28.3032 21.3488L28.215 21.4267L28.2924 21.338C28.3884 21.2282 28.3187 21.1225 28.2066 21.2077C28.1561 21.2462 28.1536 21.2457 28.1896 21.2051C28.2724 21.1118 28.1677 21.0313 28.0667 21.1106C28.0173 21.1495 28.0166 21.1476 28.0603 21.0916C28.1137 21.0233 28.0556 20.9508 27.9721 20.9815C27.9503 20.9895 27.9241 20.9741 27.9138 20.947C27.8942 20.8955 27.807 20.88 27.7826 20.9237C27.7749 20.9377 27.7731 20.9301 27.7789 20.9066C27.7845 20.8831 27.7832 20.8639 27.776 20.8639C27.7688 20.8639 27.7389 20.8547 27.7095 20.8433C27.674 20.8296 27.6443 20.8498 27.6212 20.9031C27.5878 20.9798 27.5871 20.979 27.6046 20.8895C27.6207 20.8077 27.6125 20.7957 27.5399 20.7957C27.4753 20.7957 27.4536 20.8166 27.4426 20.8895C27.4295 20.9768 27.4281 20.9757 27.4234 20.8726C27.4143 20.6742 27.2843 20.7196 27.2766 20.9237L27.2705 21.0856L27.2578 20.9237C27.2458 20.7721 27.1143 20.664 27.1127 20.8042C27.1123 20.8378 27.1063 20.8376 27.0848 20.8036C27.0315 20.7191 26.7893 20.8011 26.8004 20.8999C26.8092 20.9806 26.8082 20.9811 26.7664 20.9136C26.7074 20.8184 26.5938 20.8422 26.6237 20.9435C26.644 21.0125 26.6424 21.0133 26.5987 20.956C26.5427 20.882 26.4202 20.9124 26.4509 20.9926C26.4658 21.0319 26.46 21.0353 26.4262 21.0072C26.3646 20.9558 26.2838 21.0125 26.3122 21.087C26.3314 21.1371 26.3267 21.1397 26.2833 21.1033C26.2234 21.0532 26.114 21.1173 26.1525 21.18C26.1654 21.2012 26.1577 21.2053 26.1336 21.1902C26.0783 21.1559 25.9867 21.238 26.0105 21.3005C26.026 21.3412 26.0202 21.3431 25.9804 21.31C25.9122 21.2529 25.8413 21.376 25.9026 21.4454C25.9364 21.4836 25.934 21.4844 25.8887 21.4502C25.8124 21.3927 25.7275 21.4864 25.7886 21.5605C25.8213 21.6 25.8165 21.6057 25.7619 21.5914C25.6911 21.5727 25.5602 21.7812 25.6012 21.8478C25.6121 21.8654 25.5981 21.8888 25.5703 21.8995C25.5088 21.9233 25.5035 22.0112 25.562 22.035C25.5874 22.0454 25.5806 22.0533 25.545 22.0549C25.51 22.0565 25.4857 22.0845 25.4857 22.1234C25.4857 22.1594 25.5125 22.1961 25.545 22.2047C25.5832 22.2146 25.5726 22.2217 25.5151 22.2241C25.4515 22.2271 25.4206 22.2079 25.4075 22.1575C25.3761 22.0369 25.1791 22.0795 25.1325 22.2171C25.0854 22.3562 25.0486 22.3917 25.0124 22.3325C24.9751 22.2717 25.0049 22.194 25.0655 22.194C25.0915 22.194 25.1127 22.171 25.1127 22.1429C25.1127 22.0817 25.0073 22.075 24.95 22.1327C24.9276 22.1552 24.9093 22.2212 24.9093 22.2793C24.9093 22.5095 25.1212 22.5462 25.2054 22.3305C25.2591 22.1932 25.2944 22.165 25.3333 22.2285C25.366 22.2814 25.3175 22.3987 25.263 22.3987C25.2363 22.3987 25.2145 22.4228 25.2145 22.4523C25.2145 22.5292 25.3568 22.5008 25.4001 22.415C25.4278 22.3601 25.4554 22.3506 25.5366 22.3684L25.6384 22.3906L25.545 22.3946C25.3866 22.4014 25.4172 22.5335 25.579 22.5408L25.7062 22.5466L25.579 22.5599C25.4182 22.5769 25.3899 22.7025 25.545 22.7102C25.625 22.7143 25.6275 22.7171 25.562 22.7296C25.5196 22.738 25.4853 22.7699 25.4847 22.8018C25.4837 22.8539 25.4805 22.8538 25.4492 22.7994C25.3638 22.6521 25.1344 22.7378 25.1395 22.9151C25.1409 22.9687 25.1278 23.0125 25.1106 23.0125C25.0931 23.0125 25.0786 22.9857 25.0783 22.9529C25.0776 22.8592 25.0198 22.7854 24.9793 22.8263C24.8858 22.9202 25.0015 23.1006 25.1461 23.0867C25.2819 23.0736 25.3167 23.0267 25.2446 22.9541C25.1939 22.9031 25.236 22.8421 25.322 22.8421C25.3831 22.8421 25.3889 22.8566 25.3693 22.9614C25.3571 23.027 25.3599 23.0807 25.3757 23.0807C25.4249 23.0807 25.4857 23.0017 25.4857 22.9375C25.4857 22.8954 25.5097 22.8774 25.562 22.8801C25.6195 22.8831 25.6235 22.888 25.579 22.8996C25.5122 22.9172 25.5117 22.9182 25.5402 22.9927C25.5515 23.0223 25.5858 23.0469 25.6164 23.0471C25.6582 23.0476 25.6613 23.0546 25.6286 23.0755C25.5687 23.1137 25.6158 23.2267 25.6813 23.2014C25.7204 23.1862 25.7239 23.1922 25.6959 23.2261C25.6462 23.2862 25.7011 23.3693 25.7722 23.3419C25.8686 23.3048 25.7973 23.3774 25.6382 23.4784C25.5544 23.5318 25.4857 23.595 25.4857 23.6189C25.4856 23.7196 25.598 23.6933 25.8156 23.5421C26.0837 23.3559 26.0257 23.4114 25.3533 23.9845C24.909 24.3634 24.8782 24.4 24.9476 24.4699C24.9762 24.4985 25.1392 24.3765 25.5833 23.9939C25.9119 23.7108 26.1117 23.5547 26.0272 23.6467C25.9427 23.7387 25.7786 23.9163 25.6626 24.0413C25.4415 24.2797 25.4166 24.3313 25.5065 24.3659C25.545 24.3808 25.6269 24.3167 25.7806 24.1518C25.9922 23.9249 25.9897 23.9293 25.7153 24.2744C25.3618 24.7189 25.3684 24.7071 25.4454 24.7484C25.5003 24.778 25.5656 24.7111 25.9438 24.2385C26.1831 23.9394 26.3838 23.6946 26.3896 23.6946C26.3953 23.6946 26.2986 23.8596 26.1744 24.0613C25.7851 24.6939 25.8104 24.6394 25.8864 24.6803C25.9453 24.712 25.9793 24.6705 26.218 24.2753C26.5621 23.7057 26.5679 23.7336 26.2419 24.3911C25.9803 24.919 25.9642 24.9866 26.0996 24.9901C26.1108 24.9904 26.2402 24.7383 26.3869 24.4298C26.6786 23.8166 26.714 23.7643 26.5906 24.1296C26.5062 24.3787 26.5079 24.4109 26.6049 24.4109C26.6449 24.4109 26.6799 24.3502 26.7233 24.2059C26.8332 23.8411 26.8142 24.0146 26.6899 24.5108C26.6234 24.7767 26.5778 25.0088 26.5888 25.0266C26.6282 25.0909 26.7056 25.0567 26.7284 24.9651C26.7413 24.9134 26.8238 24.5797 26.9117 24.2233L27.0717 23.5753L27.0755 24.5394L27.0793 25.5036L26.9395 25.4318C26.8625 25.3923 26.7394 25.3162 26.6658 25.2625C26.4107 25.0767 26.1129 25.064 25.838 25.2271C25.7333 25.2892 25.7112 25.2913 25.6124 25.2488C25.552 25.2228 25.3664 25.1508 25.2 25.0888C25.0263 25.0243 24.8096 24.9109 24.6914 24.8232C24.4926 24.6754 24.2424 24.5797 24.0628 24.5829C23.7255 24.5887 22.9957 25.1492 22.5549 25.741C22.2523 26.147 22.0019 26.3633 21.5279 26.6277C21.4489 26.6718 21.3448 26.7679 21.2965 26.8413C21.2481 26.9148 21.2012 26.9675 21.1922 26.9585C21.1385 26.9044 26.3174 18.295 26.4327 18.2465C26.8094 18.0883 27.3781 18.0701 27.7996 18.2027ZM6.13893 19.8077L5.80381 20.4718L5.10033 20.5734C4.71337 20.6294 4.39684 20.6849 4.39684 20.6967C4.39684 20.7085 4.62698 20.9443 4.90838 21.2206L5.42005 21.7229L5.29896 22.4251C5.23231 22.8114 5.18396 23.1336 5.19151 23.1412C5.19906 23.1488 5.47726 23.0118 5.80962 22.8365C6.14213 22.6614 6.43281 22.5132 6.45576 22.5072C6.47855 22.5012 6.77418 22.6437 7.11263 22.824C7.45109 23.0044 7.73641 23.1434 7.74657 23.133C7.75688 23.1228 7.71129 22.7994 7.64537 22.4144L7.52572 21.7146L8.04684 21.2063C8.33361 20.9267 8.55649 20.6912 8.54226 20.6825C8.52788 20.6739 8.20554 20.6234 7.82599 20.5701L7.13572 20.4732L6.80481 19.8083L6.47405 19.1434L6.13893 19.8077ZM47.6198 19.7931C47.2468 20.5635 47.3873 20.46 46.5545 20.5766C46.1741 20.6298 45.8626 20.6843 45.8626 20.6977C45.8626 20.711 46.094 20.9444 46.377 21.2165L46.8913 21.7111L46.7701 22.4215C46.7034 22.8123 46.6539 23.1373 46.6603 23.1437C46.6666 23.1503 46.9593 23.0055 47.3108 22.8221L47.9498 22.4885L48.5722 22.8187C48.9144 23.0004 49.2052 23.149 49.2184 23.149C49.2316 23.149 49.1876 22.8247 49.1207 22.4283L48.9989 21.7075L49.5242 21.2032C49.8132 20.9257 50.042 20.6922 50.0328 20.6841C50.0236 20.676 49.6974 20.6253 49.3082 20.5714L48.6002 20.4735L48.2799 19.8249C48.1037 19.4681 47.9533 19.17 47.9458 19.1623C47.9382 19.1547 47.7914 19.4384 47.6198 19.7931ZM17.2581 19.3843C17.172 19.5166 17.2524 19.6533 17.4163 19.6533C17.5064 19.6533 17.5435 19.6331 17.5826 19.5633C17.6524 19.4382 17.5639 19.2952 17.4163 19.2952C17.3458 19.2952 17.299 19.3215 17.2581 19.3843ZM36.8294 19.3488C36.7094 19.4693 36.8006 19.6702 36.9752 19.6702C37.096 19.6702 37.1491 19.613 37.1491 19.4827C37.1491 19.3036 36.9551 19.2223 36.8294 19.3488ZM18.2029 20.0863C18.1452 20.1443 18.1525 20.3035 18.2155 20.3671C18.3375 20.4896 18.5352 20.3954 18.5352 20.2147C18.5352 20.0677 18.3086 19.9802 18.2029 20.0863ZM35.9014 20.0863C35.8351 20.1529 35.851 20.3449 35.9262 20.3853C36.1317 20.4959 36.3408 20.2604 36.1803 20.0991C36.1173 20.0357 35.9589 20.0284 35.9014 20.0863ZM26.8673 20.1735C26.8219 20.1838 26.8081 20.2217 26.8081 20.3358C26.8081 20.5339 26.7673 20.549 26.6757 20.3852C26.5081 20.0852 26.4335 20.2222 26.5402 20.6338C26.5827 20.7982 26.6793 20.813 26.6521 20.6508C26.634 20.5422 26.7095 20.5838 26.7496 20.7044C26.7814 20.8004 26.876 20.6878 26.8799 20.5496L26.884 20.4036L26.9186 20.5485C26.9523 20.6891 26.9874 20.7262 27.0264 20.6624C27.0445 20.6333 26.9653 20.1883 26.9389 20.1692C26.9322 20.1643 26.9 20.1662 26.8673 20.1735ZM27.1128 20.2756C27.1126 20.346 27.1033 20.4592 27.0921 20.5273C27.0699 20.6621 27.2229 20.7243 27.408 20.6558C27.511 20.6178 27.5188 20.2359 27.4178 20.1816C27.2557 20.0944 27.1131 20.1383 27.1128 20.2756ZM27.5788 20.441C27.5465 20.5648 27.5287 20.6799 27.539 20.6968C27.5737 20.7532 27.6116 20.7284 27.6422 20.6291C27.6836 20.4951 27.825 20.5374 27.8255 20.6839C27.8256 20.748 27.8503 20.7909 27.9017 20.8165C27.9435 20.8372 28.0502 20.8961 28.1388 20.9472C28.2656 21.0205 28.2998 21.0293 28.2998 20.9882C28.2998 20.9595 28.2541 20.9088 28.1981 20.8756C28.0171 20.768 28.0778 20.6808 28.2657 20.7786C28.3376 20.8159 28.3703 20.8191 28.3878 20.7905C28.4108 20.7532 28.3816 20.7224 28.246 20.6402C28.2107 20.6189 28.1967 20.5869 28.2118 20.5623C28.231 20.5311 28.2653 20.5379 28.3489 20.5899C28.4816 20.6725 28.5033 20.6752 28.5033 20.6097C28.5033 20.5637 28.2091 20.3622 28.1838 20.3909C28.1776 20.3979 28.1214 20.4956 28.0587 20.6082C27.9305 20.8384 27.8795 20.794 27.9771 20.5371C28.0424 20.3652 28.0286 20.3291 27.873 20.2637C27.6692 20.1781 27.6433 20.1937 27.5788 20.441ZM27.3308 20.2708C27.4133 20.3027 27.3944 20.3525 27.2997 20.3525C27.2469 20.3525 27.2149 20.333 27.2149 20.3012C27.2149 20.2461 27.246 20.2379 27.3308 20.2708ZM23.9029 20.5778L24.1659 20.8544L23.9394 21.2351C23.8148 21.4445 23.7056 21.6085 23.6969 21.5996C23.6506 21.553 23.5902 20.8505 23.6094 20.5819C23.6211 20.4173 23.6329 20.2869 23.6353 20.292C23.6378 20.2971 23.7582 20.4256 23.9029 20.5778ZM26.1554 20.4077C26.0668 20.4531 25.9942 20.5057 25.9942 20.5247C25.9942 20.5581 26.1303 20.8353 26.1904 20.9245C26.2274 20.9795 26.5368 20.816 26.5368 20.7417C26.5368 20.6818 26.5093 20.6824 26.4012 20.7446C26.2929 20.8068 26.2316 20.8083 26.2316 20.7487C26.2316 20.7228 26.2774 20.6827 26.3334 20.6593C26.3893 20.6359 26.4351 20.6044 26.4351 20.5891C26.4351 20.5293 26.3649 20.5225 26.2685 20.5726C26.2003 20.608 26.1605 20.6133 26.1454 20.5888C26.1192 20.5461 26.1165 20.5492 26.2549 20.4655C26.429 20.3602 26.3445 20.311 26.1554 20.4077ZM27.876 20.416C27.876 20.4373 27.8645 20.4547 27.8506 20.4547C27.8367 20.4547 27.8022 20.4547 27.7744 20.4547C27.7463 20.4547 27.7234 20.4245 27.7234 20.3877C27.7234 20.3323 27.7369 20.3254 27.7998 20.3488C27.8417 20.3644 27.876 20.3947 27.876 20.416ZM31.1443 20.7446C31.1485 21.1095 31.006 22.0595 30.9475 22.0566C30.9365 22.0562 30.8036 21.8459 30.6522 21.5895L30.3769 21.1235L30.7367 20.7179C31.1465 20.2562 31.1386 20.2556 31.1443 20.7446ZM27.3463 20.4855C27.407 20.5241 27.3653 20.5911 27.2807 20.5911C27.2374 20.5911 27.2149 20.5677 27.2149 20.5229C27.2149 20.451 27.2684 20.4359 27.3463 20.4855ZM25.8082 20.6246C25.7869 20.6595 26.0564 21.0686 26.1007 21.0686C26.1786 21.0686 26.1519 20.976 26.0221 20.7962C25.8724 20.5886 25.8442 20.566 25.8082 20.6246ZM25.5565 20.8439C25.4113 20.9928 25.3825 21.1422 25.5239 21.0135C25.587 20.9562 25.5949 20.9595 25.7409 21.1035C25.8418 21.2032 25.9036 21.2416 25.9261 21.219C25.9488 21.1962 25.9094 21.1349 25.8082 21.035C25.6649 20.8934 25.6596 20.8816 25.7127 20.8226C25.8434 20.6773 25.6999 20.6969 25.5565 20.8439ZM28.6213 20.9697C28.414 21.1413 28.4132 21.1433 28.5073 21.2716C28.719 21.5594 29.1263 21.2628 28.9296 20.964C28.8211 20.7991 28.8275 20.7989 28.6213 20.9697ZM28.8564 21.1607C28.7879 21.2703 28.7131 21.2942 28.648 21.2279C28.5905 21.1692 28.5921 21.1629 28.6861 21.081C28.8003 20.9811 28.9307 21.0421 28.8564 21.1607ZM25.2576 21.2286C25.2213 21.2814 25.1808 21.3434 25.1675 21.3667C25.1329 21.4267 25.5524 21.6973 25.6021 21.6471C25.6278 21.6212 25.6161 21.5938 25.5618 21.5524C25.4921 21.4996 25.4891 21.4845 25.5273 21.3829C25.6087 21.1658 25.3879 21.0395 25.2576 21.2286ZM25.4113 21.3627C25.3313 21.4432 25.2614 21.3871 25.3369 21.3031C25.3774 21.2581 25.4069 21.2485 25.4309 21.2726C25.455 21.2968 25.4487 21.325 25.4113 21.3627ZM28.9187 21.3849C28.6737 21.5092 28.681 21.4911 28.7944 21.6953C28.9216 21.9241 29.0135 21.8824 28.894 21.65C28.8501 21.5646 28.85 21.5504 28.8937 21.5334C28.9258 21.5212 28.9621 21.5504 28.9955 21.6154C29.0241 21.671 29.07 21.7166 29.0974 21.7166C29.1603 21.7166 29.16 21.7033 29.0933 21.5739C29.0488 21.487 29.0473 21.4638 29.0849 21.4395C29.118 21.4184 29.1434 21.443 29.1776 21.5294C29.22 21.637 29.317 21.6967 29.317 21.6152C29.317 21.5676 29.1715 21.2729 29.1493 21.2752C29.1389 21.2764 29.0351 21.3258 28.9187 21.3849ZM25.0407 21.6398C24.9556 21.8581 24.9793 21.9255 25.1636 21.9916C25.4479 22.0934 25.484 22.073 25.5432 21.7762C25.5621 21.6818 25.499 21.6385 25.4688 21.7251C25.3956 21.9347 25.3835 21.9529 25.3323 21.9332C25.3022 21.9215 25.2868 21.8904 25.2974 21.8625C25.3546 21.7125 25.3562 21.6484 25.3029 21.6484C25.2729 21.6484 25.2484 21.6627 25.2484 21.6802C25.2484 21.7712 25.1787 21.8843 25.1332 21.8667C25.0907 21.8502 25.0901 21.8294 25.1296 21.7169C25.1548 21.6452 25.1665 21.5773 25.1554 21.5662C25.114 21.5245 25.076 21.5489 25.0407 21.6398ZM17.5043 22.8285L17.5011 23.6677L17.3316 23.816L17.162 23.9644L17.1396 23.8039C17.1273 23.7156 17.1158 23.5553 17.1142 23.4473C17.1119 23.2934 17.0998 23.2513 17.0581 23.2513C16.9646 23.2513 16.6561 23.6013 16.5224 23.8592C16.356 24.1801 16.3544 24.1745 16.4498 23.6086C16.6064 22.6782 16.6146 22.6546 16.8149 22.5541C16.9106 22.5062 17.0062 22.4669 17.0272 22.4669C17.0547 22.4669 17.401 22.1234 17.5043 21.9935C17.5062 21.9913 17.5062 22.367 17.5043 22.8285ZM29.2595 22.056C29.2468 22.1045 29.2012 22.1289 29.0931 22.1453C28.9601 22.1653 28.8695 22.2623 28.9836 22.2623C29.2387 22.2623 29.5279 22.1527 29.4017 22.1041C29.3737 22.0933 29.3509 22.063 29.3509 22.0369C29.3509 21.965 29.2792 21.9801 29.2595 22.056ZM37.4764 22.5124C37.7588 22.6115 37.7769 22.6534 37.9287 23.5544C38.0162 24.0743 38.0062 24.1459 37.88 23.8992C37.7284 23.6026 37.5957 23.4267 37.4511 23.3305C37.2857 23.2204 37.2995 23.199 37.2637 23.6239L37.2339 23.9796L37.0476 23.8069L36.8613 23.6343L36.841 23.366C36.8298 23.2185 36.8282 22.8478 36.8375 22.5421L36.8545 21.9865L37.0781 22.2187C37.2457 22.393 37.3454 22.4664 37.4764 22.5124ZM18.7356 22.7491L19.4278 23.1739L19.4199 24.5854C19.4108 26.2659 19.4575 26.5872 19.8442 27.5014L19.9614 27.7783L19.3468 28.7462C19.0087 29.2785 18.7199 29.7272 18.705 29.7431C18.6174 29.8359 18.4211 29.2571 18.3169 28.5998C18.2859 28.4043 18.2016 28.0994 18.1101 27.8519C17.9873 27.5202 17.9454 27.3489 17.9068 27.0223C17.88 26.7959 17.8175 26.4111 17.7679 26.1673C17.6543 25.6098 17.6446 24.9943 17.7384 24.2915C17.782 23.9652 17.8045 23.5655 17.8097 23.0296C17.8139 22.5982 17.8185 22.2325 17.8201 22.2168C17.8219 22.2012 17.8727 22.219 17.9334 22.2563C17.9939 22.2935 18.3551 22.5152 18.7356 22.7491ZM36.533 22.8847C36.5327 23.3455 36.5561 23.8022 36.6033 24.2574C36.7074 25.2629 36.7022 25.4446 36.5414 26.3719C36.5024 26.597 36.4564 26.9269 36.4391 27.1051C36.4161 27.341 36.366 27.5498 36.2548 27.8725C36.1671 28.1269 36.0858 28.4393 36.0642 28.6058C35.9919 29.1607 35.8216 29.7331 35.7296 29.7306C35.6861 29.7294 34.5894 27.8361 34.5942 27.7702C34.5968 27.7327 34.6616 27.5184 34.7381 27.2941C34.8146 27.0698 34.9191 26.7092 34.9705 26.4927L35.0639 26.0991L35.0604 24.6307L35.0569 23.1624L35.7893 22.6801C36.1922 22.415 36.5245 22.1971 36.5275 22.1961C36.5307 22.1949 36.5332 22.5049 36.533 22.8847ZM28.9943 22.4212C28.9577 22.458 28.9432 22.5139 28.9529 22.5804C28.9611 22.6369 28.9473 22.752 28.922 22.8361C28.8641 23.0298 28.8644 23.0807 28.9233 23.0807C28.9506 23.0807 28.981 23.0271 28.9955 22.9529L29.0206 22.825L29.07 22.97C29.1312 23.1501 29.2499 23.1974 29.3608 23.086C29.4198 23.0267 29.4266 22.9975 29.3994 22.9198C29.3633 22.8165 29.2491 22.7685 29.2491 22.8565C29.2491 22.8861 29.2656 22.9103 29.2856 22.9103C29.3056 22.9103 29.3168 22.9372 29.3106 22.9699C29.2904 23.0756 29.2066 23.0337 29.1446 22.8869L29.0843 22.7441L29.1861 22.7216C29.2422 22.7092 29.2965 22.7077 29.3069 22.7182C29.3583 22.7699 29.4526 22.6622 29.4526 22.5516C29.4526 22.4333 29.3432 22.3572 29.2535 22.4131C29.2351 22.4245 29.2104 22.4182 29.1986 22.3993C29.1661 22.3462 29.0572 22.3579 28.9943 22.4212ZM15.7607 22.4531C15.5699 22.5875 15.7823 22.8872 15.9771 22.7587C16.086 22.687 16.0901 22.526 15.9847 22.4518C15.8902 22.3851 15.8569 22.3852 15.7607 22.4531ZM38.3696 22.4669C38.2379 22.5993 38.3171 22.7851 38.5053 22.7851C38.6234 22.7851 38.7087 22.7061 38.7087 22.5967C38.7087 22.5145 38.5898 22.3987 38.5053 22.3987C38.4679 22.3987 38.407 22.4293 38.3696 22.4669ZM29.1643 22.5697C29.1643 22.6427 29.0659 22.6322 29.0517 22.5576C29.0428 22.512 29.0568 22.4981 29.1021 22.5069C29.1363 22.5135 29.1643 22.5418 29.1643 22.5697ZM29.3618 22.5896C29.3488 22.6239 29.3303 22.6305 29.3087 22.6086C29.2699 22.5696 29.3074 22.491 29.3518 22.5186C29.3684 22.5288 29.3729 22.5608 29.3618 22.5896ZM16.9823 22.7806C16.9247 22.8386 16.9318 22.9979 16.995 23.0613C17.1148 23.1818 17.3146 23.0902 17.3146 22.9147C17.3146 22.7932 17.2576 22.7397 17.1281 22.7397C17.0703 22.7397 17.0047 22.7581 16.9823 22.7806ZM37.1185 22.7869C37.0425 22.8789 37.0859 23.0582 37.1932 23.0959C37.3575 23.1536 37.4928 23.0176 37.4353 22.8523C37.3961 22.7394 37.1924 22.6974 37.1185 22.7869ZM25.2726 23.2414C25.1001 23.3187 25.0298 23.4048 25.1393 23.4048C25.1602 23.4048 25.1962 23.424 25.2196 23.4473C25.2832 23.5115 25.3263 23.4987 25.3064 23.4219C25.2922 23.3673 25.3186 23.3406 25.4406 23.2864C25.5242 23.2491 25.5827 23.2031 25.571 23.1839C25.5401 23.1336 25.4927 23.1427 25.2726 23.2414ZM28.7957 23.2072C28.7502 23.2529 28.7806 23.2873 28.9355 23.3657C29.2278 23.5134 29.26 23.5153 29.2317 23.3826C29.2012 23.2394 29.1943 23.2322 29.1339 23.2826C29.0949 23.315 29.057 23.3093 28.9508 23.2548C28.8771 23.217 28.8073 23.1955 28.7957 23.2072ZM21.6757 24.4864L21.9175 24.6359L21.6592 25.0687L21.4009 25.5014L21.3559 25.3739C21.2249 25.003 21.1501 24.4747 21.2012 24.2826L21.2217 24.2057L21.3278 24.2712C21.3864 24.3073 21.5429 24.4041 21.6757 24.4864ZM33.3924 24.3628C33.4208 24.6085 33.297 25.2756 33.1627 25.5987L33.1121 25.7205L32.8897 25.3471C32.7674 25.1417 32.6372 24.9239 32.6003 24.8633L32.5332 24.7532L32.917 24.4991C33.3629 24.204 33.3737 24.201 33.3924 24.3628ZM37.3525 25.2552C37.4364 25.2977 37.5432 25.3603 37.5898 25.3947C37.7298 25.4976 37.8376 25.5479 37.9628 25.5685C38.1574 25.6008 38.186 26.1967 38.0283 26.9319L37.9886 27.1169L37.9435 26.9851C37.9188 26.9126 37.8667 26.814 37.8276 26.7661C37.7887 26.7181 37.7308 26.6328 37.6988 26.5765C37.6339 26.4622 37.1787 26.0074 37.0473 25.9256L36.9625 25.8727V25.2989V24.725L37.0813 24.9515C37.1787 25.1376 37.2272 25.192 37.3525 25.2552ZM17.3655 25.3418V25.8634L17.0782 26.1261C16.9202 26.2707 16.7696 26.4311 16.7436 26.4828C16.7175 26.5343 16.6607 26.6148 16.6173 26.6618C16.5739 26.7087 16.5044 26.8238 16.4627 26.9176L16.387 27.088L16.3423 26.8665C16.2066 26.1929 16.249 25.5996 16.4351 25.5685C16.5603 25.5476 16.6876 25.4889 16.7763 25.4112C16.8065 25.3847 16.9128 25.3215 17.0126 25.2707C17.1643 25.1933 17.2074 25.1492 17.2787 24.9992C17.3255 24.9007 17.3641 24.8201 17.3645 24.8202C17.3651 24.8202 17.3655 25.055 17.3655 25.3418ZM24.2471 24.8706C24.3024 24.883 24.4168 24.9441 24.5013 25.006C24.693 25.1465 25.0041 25.3034 25.2484 25.3827C25.5432 25.4784 25.624 25.5312 25.8586 25.7823C25.9799 25.9118 26.1724 26.0823 26.2865 26.1609C27.0061 26.6561 27.0799 26.721 27.9335 27.6097C28.0794 27.7616 28.24 27.8874 28.3829 27.9616L28.605 28.0771L28.3592 28.0945C28.224 28.104 26.4255 28.106 24.3623 28.0989L20.6114 28.086L20.8336 27.7127C21.0025 27.4288 21.0848 27.3238 21.1771 27.2745C21.3353 27.1901 21.4292 27.1093 21.4999 26.9969C21.5314 26.9466 21.6601 26.8441 21.7859 26.7689C22.2063 26.5177 22.4269 26.3245 22.7196 25.9511C23.2114 25.3235 23.8825 24.777 24.092 24.8332C24.1219 24.8413 24.1917 24.8581 24.2471 24.8706ZM26.5245 25.4784C26.8011 25.6672 26.9845 25.7601 27.2145 25.828C27.4044 25.8842 27.4658 25.9247 27.665 26.1255C27.7919 26.2535 27.9599 26.3997 28.0385 26.4506C28.4135 26.6937 28.6935 26.9322 29.0976 27.3528C29.3729 27.6394 29.6071 27.8509 29.7238 27.918L29.9104 28.0254L29.4447 28.0257L28.9792 28.026L28.8006 27.9113C28.7023 27.8482 28.5534 27.7619 28.4694 27.7194C28.3707 27.6693 28.1191 27.4371 27.7574 27.0622C27.2399 26.5259 27.099 26.4062 26.4968 25.9915C26.3837 25.9135 26.2084 25.7675 26.1073 25.6674L25.9237 25.4852L25.9967 25.4255C26.1182 25.326 26.3328 25.3475 26.5245 25.4784ZM27.9419 25.6671C28.1195 25.7947 28.3049 25.887 28.5364 25.9633C28.6785 26.01 28.782 26.0819 28.9779 26.2695C29.1186 26.4043 29.2686 26.5335 29.3113 26.5564C29.5217 26.6696 29.9509 27.034 30.2523 27.3552C30.4372 27.5522 30.6701 27.7683 30.7698 27.8355L30.9513 27.9578H30.6239H30.2965L29.9847 27.772C29.7276 27.6188 29.6024 27.5108 29.2695 27.1552C28.9085 26.7698 28.7382 26.6261 28.1856 26.24C28.1085 26.1863 27.9387 26.0389 27.8082 25.9124C27.6777 25.786 27.5339 25.6709 27.4888 25.6564L27.4066 25.6303L27.4888 25.5828C27.6029 25.5168 27.778 25.5493 27.9419 25.6671ZM16.7238 25.6922C16.598 25.8187 16.6787 26.0138 16.8569 26.0138C16.9914 26.0138 17.0433 25.9599 17.0433 25.8206C17.0433 25.6533 16.8425 25.5727 16.7238 25.6922ZM37.3958 25.6812C37.2811 25.8305 37.3498 26.0138 37.5204 26.0138C37.7052 26.0138 37.7947 25.8146 37.6634 25.6951C37.5902 25.6285 37.4423 25.6208 37.3958 25.6812ZM15.3736 25.7087C15.3046 25.7502 15.2924 25.9441 15.3548 26.0069C15.4283 26.0807 15.579 26.0554 15.642 25.9587C15.7524 25.7893 15.5513 25.6022 15.3736 25.7087ZM38.7649 25.7351C38.6521 25.8604 38.7302 26.0478 38.8951 26.0478C38.9975 26.0478 39.0817 25.9633 39.0817 25.8603C39.0817 25.6913 38.877 25.6104 38.7649 25.7351ZM29.7848 26.0461C29.8648 26.1007 30.0393 26.1883 30.1723 26.2409C30.3397 26.3069 30.462 26.3845 30.5694 26.4926C30.6548 26.5784 30.8466 26.7312 30.9956 26.8321C31.1446 26.9331 31.4241 27.1776 31.6168 27.3753C31.8094 27.5731 32.0078 27.7619 32.0576 27.7949C32.1466 27.8539 32.1409 27.8549 31.7297 27.8552L31.3114 27.8554L31.0856 27.7295C30.9243 27.6395 30.7384 27.4799 30.4359 27.1714C30.2028 26.9338 29.8824 26.6461 29.7238 26.5321C29.3657 26.2746 29.2153 26.1515 29.2153 26.116C29.2153 25.9583 29.5886 25.9124 29.7848 26.0461ZM31.0123 26.2526C31.0962 26.3088 31.2677 26.3946 31.3934 26.4429C31.5404 26.4997 31.6459 26.5649 31.6889 26.6258C31.7258 26.6778 31.8671 26.7947 32.0028 26.8859C32.1386 26.9769 32.4058 27.2092 32.5963 27.4023L32.9427 27.7532H32.7221C32.4184 27.7532 32.2546 27.6519 31.745 27.1492C31.5192 26.9265 31.2275 26.6737 31.0969 26.5875C30.7663 26.369 30.6454 26.2378 30.7294 26.1888C30.8212 26.1352 30.8447 26.1404 31.0123 26.2526ZM36.8867 26.7058C36.8978 26.961 36.8922 27.0026 36.8491 26.9859C36.8212 26.9753 36.7848 26.9861 36.7681 27.0102C36.7472 27.0404 36.7428 27.0328 36.7543 26.9858C36.7633 26.9482 36.7906 26.7794 36.8147 26.6106C36.8635 26.2697 36.8683 26.276 36.8867 26.7058ZM17.5576 26.9767C17.4961 27.0385 17.486 26.9967 17.5101 26.78L17.5327 26.5765L17.5643 26.7574C17.5867 26.8852 17.5848 26.9494 17.5576 26.9767ZM36.977 28.2135C37.0332 28.3261 37.0878 28.4611 37.0981 28.5134C37.1112 28.5789 37.163 28.6365 37.2642 28.698C37.4112 28.7872 37.4115 28.7878 37.4319 29.0291C37.459 29.3459 37.2027 30.2444 37.1394 30.0553C37.1205 29.9989 37.0605 29.8873 37.0061 29.807C36.9516 29.7268 36.8686 29.5734 36.8215 29.4662C36.7743 29.3592 36.6763 29.2065 36.6034 29.1269C36.5306 29.0475 36.471 28.9505 36.471 28.9115C36.471 28.7506 36.4089 28.8956 36.3723 29.1423C36.3222 29.4789 36.316 29.6799 36.3448 30.0211C36.3623 30.2272 36.3598 30.2624 36.335 30.1649C36.3168 30.094 36.2798 29.9926 36.2525 29.9397C36.1796 29.7978 36.1822 29.5817 36.2609 29.2366C36.2994 29.0679 36.3478 28.805 36.3681 28.6527C36.3886 28.5002 36.4733 28.1811 36.5567 27.9433C36.64 27.7057 36.7093 27.4774 36.7105 27.4361C36.7118 27.3947 36.7492 27.5068 36.7937 27.6849C36.8382 27.8631 36.9207 28.1011 36.977 28.2135ZM17.8171 27.961C17.9103 28.216 17.9971 28.5153 18.0101 28.626C18.023 28.7368 18.0724 28.9886 18.1198 29.1855C18.219 29.5972 18.2205 29.7494 18.1272 29.9554C18.0905 30.0364 18.0594 30.1379 18.0581 30.1813C18.0559 30.2542 18.0539 30.2549 18.0295 30.1924C18.0151 30.1553 18.0159 30.0709 18.0311 30.0047C18.086 29.7675 18.0616 29.3174 17.972 28.9127C17.9534 28.8285 17.9526 28.829 17.9057 28.941C17.8795 29.0035 17.8007 29.1202 17.7304 29.2005C17.6603 29.2807 17.5819 29.4046 17.5563 29.4757C17.5309 29.5468 17.4508 29.6973 17.3783 29.8099C17.306 29.9225 17.2468 30.0352 17.2468 30.0605C17.2468 30.2006 17.1768 30.0551 17.0536 29.6593C16.9414 29.2984 16.9205 29.1915 16.945 29.1053C16.9619 29.0465 16.9755 28.9496 16.9755 28.8899C16.9755 28.7974 16.997 28.7695 17.1197 28.7015C17.2401 28.6347 17.2701 28.5966 17.3025 28.4688C17.3237 28.3847 17.3793 28.2468 17.4259 28.1624C17.4725 28.078 17.5389 27.891 17.5733 27.747C17.6077 27.603 17.6385 27.4879 17.6417 27.4913C17.6449 27.4946 17.7239 27.706 17.8171 27.961ZM34.4759 29.0746L35.1422 30.1917L31.1588 30.2003C28.968 30.2051 25.3918 30.2051 23.2117 30.2003L19.2477 30.1917L19.7985 29.2597L20.3491 28.3277L24.8512 28.3388C28.2525 28.3473 29.3594 28.3403 29.3778 28.3102C29.3942 28.2835 29.6028 28.2642 30.0123 28.2516C30.5452 28.2351 31.7223 28.1774 31.7516 28.1663C31.7574 28.1641 31.7528 28.1471 31.7412 28.1282C31.7278 28.1065 31.8467 28.092 32.0698 28.0883C32.262 28.0851 32.4498 28.0796 32.4871 28.0761C32.5244 28.0726 32.6359 28.0676 32.7349 28.0648C32.8415 28.0621 32.9067 28.0466 32.8946 28.027C32.882 28.0066 33.0391 27.9899 33.3079 27.9832C33.5464 27.9773 33.7568 27.9693 33.7756 27.9652C33.7943 27.9611 34.1094 28.4603 34.4759 29.0746ZM17.2501 28.8916C17.1742 28.9837 17.2177 29.163 17.3249 29.2007C17.4891 29.2584 17.6244 29.1224 17.5669 28.9571C17.5277 28.8442 17.324 28.8021 17.2501 28.8916ZM36.8507 28.8854C36.7752 28.9613 36.8008 29.1487 36.8922 29.1906C37.0833 29.2781 37.2412 29.1193 37.154 28.9273C37.1124 28.8353 36.9261 28.8096 36.8507 28.8854ZM47.6088 29.5607C47.4315 29.9171 47.2707 30.2086 47.2516 30.2086C47.2047 30.2086 46.0746 30.3757 45.9515 30.4008C45.8561 30.4202 45.8655 30.4324 46.3725 30.9433L46.8912 31.4658L46.7717 32.1673C46.7059 32.5532 46.6667 32.8688 46.6844 32.8688C46.7021 32.8688 46.986 32.7269 47.3153 32.5534C47.6445 32.3798 47.9292 32.2379 47.9478 32.2379C47.9665 32.2379 48.2511 32.3798 48.5804 32.5534C48.9096 32.7269 49.1935 32.8688 49.2113 32.8688C49.229 32.8688 49.1897 32.5532 49.1239 32.1673L49.0044 31.4658L49.5231 30.9433C50.0301 30.4324 50.0397 30.4202 49.9441 30.4008C49.8211 30.3757 48.6911 30.2086 48.6442 30.2086C48.625 30.2086 48.4643 29.9171 48.2868 29.5607C48.1096 29.2043 47.9569 28.9127 47.9478 28.9127C47.9387 28.9127 47.786 29.2043 47.6088 29.5607ZM6.14126 29.5987L5.80933 30.2675L5.14549 30.3596C4.78031 30.4105 4.45957 30.4592 4.43256 30.4681C4.40018 30.479 4.55859 30.6608 4.90112 31.0059L5.4186 31.5273L5.29838 32.2217C5.23231 32.6035 5.18541 32.9232 5.19398 32.9319C5.20269 32.9407 5.38158 32.8573 5.59168 32.7467C5.80164 32.6362 6.08782 32.4865 6.22765 32.4139L6.48189 32.2821L7.1029 32.6129C7.44441 32.7951 7.73292 32.9349 7.74396 32.9237C7.75499 32.9126 7.71041 32.5883 7.64464 32.203L7.52529 31.5024L8.04771 31.0027C8.39154 30.6736 8.55518 30.4953 8.52628 30.4807C8.50204 30.4683 8.1797 30.4148 7.80988 30.3615L7.13746 30.2648L6.80525 29.5974L6.47318 28.9299L6.14126 29.5987ZM16.1639 29.2176C16.0802 29.3018 16.0767 29.3501 16.1467 29.4507C16.2257 29.5642 16.4209 29.5566 16.4746 29.4382C16.5651 29.2384 16.3178 29.0628 16.1639 29.2176ZM37.951 29.2138C37.8276 29.351 37.9008 29.5265 38.0814 29.5265C38.2111 29.5265 38.268 29.4732 38.268 29.3517C38.268 29.1712 38.0678 29.0841 37.951 29.2138ZM19.7969 30.9786C20.0633 31.1207 20.3271 31.272 20.3832 31.315C20.5773 31.4638 20.972 31.6394 21.3885 31.7622C21.6187 31.83 21.9367 31.9449 22.0952 32.0175C23.0466 32.453 24.7262 32.4202 25.9393 31.9424C26.1426 31.8624 26.1407 31.8605 26.0712 32.0793C25.9809 32.3632 26.1798 32.7251 26.4297 32.7313C26.4547 32.732 26.5016 32.7653 26.5339 32.8056C26.5749 32.8564 26.6508 32.8867 26.784 32.9048C26.8891 32.9191 27.0206 32.9537 27.0761 32.9816C27.1637 33.0254 27.1968 33.026 27.3232 32.9849C27.4035 32.959 27.5259 32.9293 27.5953 32.9189C27.6647 32.9087 27.7661 32.8626 27.8205 32.8164C27.8751 32.7702 27.9377 32.7324 27.9596 32.7324C27.9816 32.7324 28.0665 32.686 28.1485 32.6292C28.3891 32.4628 28.4138 32.2747 28.2458 31.8884C28.1497 31.6672 28.1178 31.6667 28.8253 31.8985C30.4649 32.4355 31.63 32.473 32.5549 32.0185C32.7041 31.9452 33.0017 31.8295 33.2161 31.7613C33.6266 31.6309 33.7972 31.5465 34.2672 31.2421C35.3929 30.5128 35.5583 30.5223 35.5576 31.3158C35.5571 31.7133 35.6157 31.8786 35.8669 32.1888C36.1082 32.4868 36.1156 32.5423 35.9444 32.7666C35.6917 33.0977 35.0709 33.6826 35.1256 33.5381C35.2858 33.1152 35.1586 32.4609 34.81 31.9145C34.6093 31.5999 34.5926 31.6139 34.4047 32.255C34.325 32.5269 34.2234 32.8109 34.1789 32.8859L34.0982 33.0223L34.0979 32.8054C34.0976 32.5485 33.9873 32.3097 33.7353 32.02L33.5793 31.8405L33.5008 32.1524C33.4532 32.342 33.3616 32.5767 33.2674 32.7505C33.0831 33.0907 33.0242 33.2497 32.9796 33.5278C32.9584 33.6602 32.9067 33.7977 32.8369 33.9074C32.7031 34.1177 32.6735 34.4778 32.7503 34.9597L32.7981 35.2602L32.524 35.423C32.189 35.6219 31.6077 35.9383 31.5771 35.9383C31.5649 35.9383 31.6217 35.8469 31.7034 35.7351C31.7852 35.6236 31.8871 35.447 31.9301 35.343C31.9729 35.239 32.0213 35.1538 32.0377 35.1538C32.0539 35.1538 32.0579 35.1385 32.0464 35.1198C32.0348 35.101 31.9347 35.0856 31.8239 35.0856C31.5796 35.0856 31.5793 35.115 31.8267 34.7182C31.9389 34.5381 32.0251 34.3744 32.0181 34.3545C31.9959 34.2907 31.5221 34.3257 31.2241 34.4134C30.9147 34.5043 30.9214 34.5098 30.9953 34.233C31.0852 33.8962 31.0695 33.8118 30.9224 33.8395C30.6483 33.8912 30.2226 34.0747 30.0351 34.2217C29.9291 34.3048 29.7707 34.4268 29.6829 34.4927C29.4939 34.6345 29.4221 34.7455 29.305 35.0754C29.2571 35.2105 29.171 35.4144 29.1138 35.5285C29.0499 35.6557 28.9985 35.8245 28.981 35.965C28.9576 36.1523 28.7478 36.6546 28.6929 36.6546C28.6887 36.6546 28.7064 36.5355 28.7321 36.3902C28.8909 35.492 28.6148 35.1664 27.91 35.421C27.5942 35.535 27.5569 35.6167 27.4734 36.3749L27.4342 36.7295L27.3605 36.6664C27.3099 36.623 27.2585 36.492 27.1956 36.2452C26.9576 35.3128 26.635 35.0944 25.8464 35.3322C25.6006 35.4062 25.5485 35.8759 25.7078 36.5807C25.7361 36.7055 25.6707 36.6394 25.5528 36.4236C25.4814 36.2931 25.4357 36.1489 25.4149 35.9894C25.3943 35.8308 25.3401 35.6592 25.253 35.4779C25.1811 35.3278 25.0971 35.1283 25.0664 35.0345C24.9113 34.5596 24.3262 34.0891 23.6366 33.8849C23.3036 33.7863 23.2915 33.8002 23.3812 34.1801C23.4199 34.3435 23.4514 34.4833 23.4514 34.4906C23.4514 34.4981 23.4094 34.488 23.3582 34.468C23.0106 34.3332 22.3665 34.2572 22.3665 34.3508C22.3665 34.4039 22.5135 34.6671 22.6751 34.9034C22.8036 35.0912 22.8074 35.0856 22.5529 35.0856C22.4318 35.0856 22.3326 35.0899 22.3326 35.0951C22.3326 35.1519 22.6406 35.6869 22.7459 35.8128L22.8834 35.9774L22.6333 35.8511C22.3249 35.6951 21.6267 35.2938 21.6065 35.2608C21.5982 35.2475 21.6132 35.0913 21.6397 34.9139C21.7094 34.4465 21.703 34.207 21.6166 34.0441C21.4556 33.7412 21.4247 33.6629 21.4012 33.5004C21.3698 33.2825 21.2348 32.921 21.1254 32.7619C21.0219 32.6112 20.8841 32.2282 20.8541 32.0077C20.8262 31.8032 20.8239 31.8038 20.6219 32.0549C20.3698 32.3686 20.2984 32.5322 20.2972 32.7979L20.2961 33.0223L20.212 32.8859C20.1657 32.8109 20.0963 32.642 20.0578 32.5107C19.7919 31.6058 19.7973 31.6144 19.6395 31.8224C19.3026 32.2668 19.1075 33.027 19.2276 33.4281C19.2837 33.6162 19.3003 33.6236 18.9206 33.2882C18.2931 32.7337 18.234 32.5618 18.535 32.1666C18.8058 31.8113 18.821 31.7702 18.8249 31.3852C18.8268 31.1977 18.8405 30.9713 18.8551 30.8822L18.882 30.7202H19.0972C19.2999 30.7202 19.3404 30.7351 19.7969 30.9786ZM26.8419 30.7351C26.8419 30.9844 26.2371 31.2598 25.7984 31.2102C25.5328 31.1803 25.1341 31.0303 24.8727 30.8619L24.6551 30.7217L25.7486 30.721C26.3498 30.7205 26.8419 30.727 26.8419 30.7351ZM30.1306 30.7332C30.1306 30.8286 29.4293 31.1565 29.1346 31.1991C28.7166 31.2595 27.9608 30.9701 27.9608 30.7497C27.9608 30.7335 28.449 30.7202 29.0457 30.7202C29.6425 30.7202 30.1306 30.7261 30.1306 30.7332ZM27.0793 30.8166C27.0793 30.9276 26.9223 31.6916 26.8364 31.9991C26.7787 32.2055 26.7297 32.454 26.7273 32.5515L26.7233 32.7286L26.6366 32.6452C26.589 32.5994 26.5252 32.562 26.495 32.562C26.4144 32.562 26.1978 32.3438 26.1978 32.2626C26.1978 32.1394 26.5315 31.5154 26.6658 31.3874C26.7808 31.2779 26.9457 31.005 26.9917 30.8482C27.0093 30.7886 27.0793 30.7633 27.0793 30.8166ZM27.4667 31.0132C27.5284 31.1558 27.6238 31.2971 27.7273 31.3997C27.9119 31.5824 28.1756 32.091 28.1756 32.264C28.1756 32.38 27.9986 32.562 27.8857 32.562C27.8525 32.562 27.7947 32.5926 27.7574 32.6302C27.6626 32.7254 27.6557 32.7191 27.6554 32.5363C27.6553 32.4472 27.6096 32.2152 27.5538 32.0208C27.4686 31.7233 27.3166 30.9589 27.3166 30.8273C27.3166 30.7315 27.3771 30.8064 27.4667 31.0132ZM22.1677 31.0081C22.3236 31.0914 22.579 31.2069 22.7351 31.2646C22.8913 31.3224 23.0621 31.4004 23.1145 31.4379C23.5488 31.749 24.3827 31.9047 24.932 31.7771C25.0096 31.7591 25.2157 31.7213 25.3898 31.6931C25.5637 31.6649 25.7519 31.6332 25.8078 31.6229L25.9096 31.6037L25.8042 31.6528C24.883 32.0819 23.0013 32.1297 22.2587 31.7426C22.1529 31.6874 21.8554 31.5786 21.5976 31.5009C21.1339 31.361 20.7495 31.1936 20.5525 31.0458C20.4966 31.0037 20.4051 30.9446 20.3491 30.9143C20.2531 30.8625 20.293 30.8593 21.0658 30.858L21.8841 30.8567L22.1677 31.0081ZM34.0607 30.9884C33.7381 31.22 33.5062 31.3326 33.0033 31.5021C32.733 31.5932 32.4439 31.7077 32.361 31.7566C31.9119 32.0214 30.6478 32.0972 29.9272 31.9025C29.4357 31.7698 29.0078 31.6337 29.0257 31.6157C29.034 31.6075 29.0915 31.6163 29.1535 31.6354C30.0778 31.9193 31.054 31.845 31.5764 31.4508C31.6349 31.4067 31.7998 31.3237 31.9429 31.2666C32.2565 31.1413 32.5261 31.0065 32.6358 30.9203C32.7092 30.8625 32.7866 30.8567 33.4805 30.8567H34.2443L34.0607 30.9884ZM28.2998 31.3951C28.3091 31.4044 28.2711 31.401 28.215 31.3877C28.1591 31.3743 28.0984 31.3487 28.0803 31.3307C28.062 31.3129 28.1002 31.3163 28.1649 31.3383C28.2299 31.3604 28.2905 31.3859 28.2998 31.3951ZM28.7237 31.5047C28.8169 31.5393 28.8703 31.5676 28.8423 31.5676C28.8144 31.5676 28.7153 31.5393 28.6219 31.5047C28.5287 31.4701 28.4752 31.4417 28.5033 31.4417C28.5313 31.4417 28.6305 31.4701 28.7237 31.5047ZM26.1808 31.5387C26.1435 31.5549 26.0901 31.5681 26.062 31.5681C26.0301 31.5681 26.0363 31.5573 26.079 31.5387C26.1163 31.5227 26.1698 31.5095 26.1978 31.5095C26.2297 31.5095 26.2235 31.5203 26.1808 31.5387ZM18.7875 32.2363C18.6751 32.4089 18.8545 32.5934 19.0254 32.4808C19.1275 32.4134 19.1385 32.29 19.0495 32.2091C18.9605 32.1281 18.8505 32.1394 18.7875 32.2363ZM35.3376 32.2062C35.1998 32.3448 35.3627 32.5805 35.54 32.4993C35.6054 32.4694 35.6234 32.4353 35.6234 32.3422C35.6234 32.1701 35.4536 32.0895 35.3376 32.2062ZM22.9314 32.6444C22.7127 32.7359 22.5182 32.8621 22.3994 32.9893C22.3413 33.0514 22.3104 33.0634 22.2777 33.0361C22.1636 32.9408 22.0582 33.2936 22.1411 33.4931C22.214 33.6685 22.4682 33.7945 22.4682 33.6553C22.4682 33.5616 22.5026 33.5475 22.9411 33.4627L23.3327 33.3869L23.7239 33.6052C24.8139 34.2136 26.237 34.5956 27.2997 34.5651C28.4552 34.5318 29.9446 34.079 30.906 33.4685L31.0399 33.3835L31.4354 33.4606C31.6529 33.503 31.8431 33.5578 31.8581 33.5822C31.9292 33.6978 32.2328 33.5023 32.2328 33.3406C32.2328 33.2236 32.139 33.047 32.0519 33.0001C32.0049 32.9749 31.8723 32.889 31.7572 32.8095C31.4858 32.622 31.277 32.562 30.896 32.562H30.5887L29.9952 32.831C27.9923 33.7393 26.3834 33.7393 24.4133 32.8309L23.8752 32.5829L23.5023 32.5722C23.17 32.5626 23.1077 32.5704 22.9314 32.6444ZM30.8786 32.7676C30.9419 32.8016 31.0461 32.968 31.0461 33.035C31.0461 33.086 30.8758 33.2781 30.8306 33.2781C30.7916 33.2781 30.5869 32.9635 30.5654 32.8703C30.5436 32.7759 30.7614 32.7045 30.8786 32.7676ZM17.5255 32.8196C17.4129 32.8991 17.4204 33.0954 17.5382 33.1494C17.7368 33.2404 17.9113 32.9917 17.7574 32.8368C17.6738 32.7527 17.6257 32.7491 17.5255 32.8196ZM36.648 32.8196C36.5037 32.9213 36.5873 33.1758 36.7651 33.1758C36.9322 33.1758 37.0087 32.9172 36.8703 32.8196C36.8288 32.7904 36.7788 32.7666 36.7591 32.7666C36.7395 32.7666 36.6896 32.7904 36.648 32.8196ZM30.6176 32.8517C30.5824 32.9442 30.807 33.2534 30.8722 33.2021C31.0654 33.0504 30.9867 32.8006 30.7457 32.8006C30.6807 32.8006 30.6294 32.8211 30.6176 32.8517ZM23.9914 32.923C24.1961 33.0964 24.0614 33.4114 23.8007 33.3689C23.641 33.3428 23.6342 33.3317 23.6875 33.1837C23.8274 32.7942 23.8332 32.7892 23.9914 32.923ZM23.756 33.0917C23.6706 33.3033 23.6706 33.3035 23.8148 33.3324C24.01 33.3717 24.13 33.1528 24.0089 32.9788C23.9182 32.8484 23.8402 32.8831 23.756 33.0917ZM30.3046 33.0629C30.3306 33.0952 30.3335 33.1101 30.3113 33.0967C30.288 33.0827 30.265 33.0977 30.256 33.1328C30.2462 33.1703 30.2388 33.1576 30.2363 33.099C30.2318 32.9898 30.2414 32.9847 30.3046 33.0629ZM22.8179 33.1027C22.8613 33.1199 22.8179 33.1399 22.6704 33.1706C22.4878 33.2086 22.4639 33.2224 22.4817 33.2801C22.5526 33.5106 22.5527 33.5074 22.4771 33.4154C22.4224 33.3488 22.4145 33.3133 22.4399 33.2459C22.4653 33.1789 22.4595 33.1514 22.4128 33.1171C22.3457 33.0678 22.6982 33.0552 22.8179 33.1027ZM31.9687 33.1503C32.0791 33.3236 32.0705 33.387 31.9313 33.4309C31.8466 33.4574 31.8434 33.4333 31.9096 33.2718C31.9294 33.2237 31.8986 33.2075 31.7204 33.1723C31.488 33.1263 31.5161 33.0803 31.7797 33.0759C31.8896 33.074 31.9304 33.0901 31.9687 33.1503ZM30.6733 33.3727C30.6733 33.3828 30.6445 33.365 30.6097 33.3331C30.5119 33.2442 30.3091 33.3482 30.2905 33.4967C30.2831 33.5547 30.2769 33.51 30.2764 33.3974C30.276 33.2849 30.2822 33.2274 30.2902 33.2696C30.3074 33.359 30.3049 33.3583 30.4178 33.3064L30.5048 33.2667L30.428 33.1807C30.3834 33.1309 30.4187 33.1494 30.5121 33.2246C30.6007 33.296 30.6733 33.3628 30.6733 33.3727ZM29.9285 33.1742C29.8854 33.2017 29.8866 33.222 29.937 33.3285C30.0232 33.5102 30.0045 33.5237 29.9123 33.3463C29.8349 33.1976 29.8434 33.1427 29.9442 33.1427C29.9629 33.1427 29.9558 33.157 29.9285 33.1742ZM24.7712 33.2657C24.9535 33.4986 24.7281 33.8064 24.4531 33.7003C24.3725 33.6692 24.2918 33.492 24.3182 33.4043C24.387 33.1755 24.6403 33.0981 24.7712 33.2657ZM24.436 33.2845C24.3046 33.4265 24.3924 33.6873 24.5719 33.6873C24.6684 33.6873 24.8077 33.5373 24.8077 33.4332C24.8077 33.2378 24.5679 33.142 24.436 33.2845ZM29.6243 33.3475C29.6943 33.3851 29.7142 33.5318 29.6544 33.569C29.6303 33.5841 29.6325 33.6093 29.6612 33.6477C29.6969 33.6955 29.6962 33.6977 29.6561 33.6618C29.5902 33.6028 29.5548 33.6084 29.5519 33.6788C29.5488 33.7491 29.425 33.4925 29.4212 33.4085C29.4199 33.3771 29.4455 33.3442 29.478 33.3358C29.5107 33.3272 29.5422 33.3184 29.5481 33.3162C29.5539 33.314 29.5883 33.328 29.6243 33.3475ZM29.512 33.3721C29.4408 33.3881 29.436 33.4468 29.4986 33.5329C29.5591 33.6163 29.656 33.5779 29.656 33.4704C29.656 33.3827 29.6089 33.3505 29.512 33.3721ZM25.1779 33.753C25.1756 33.7991 25.1726 33.7993 25.1566 33.7555C25.1464 33.7275 25.1056 33.666 25.0661 33.6191L24.9941 33.534L25.0873 33.6166C25.1386 33.6621 25.1794 33.7234 25.1779 33.753ZM28.8568 33.6387C28.8862 33.6682 28.9101 33.71 28.9101 33.7314C28.9101 33.753 28.8863 33.7365 28.8573 33.6948C28.8169 33.6368 28.7829 33.6236 28.7132 33.6388C28.6427 33.6543 28.6335 33.6505 28.6729 33.6225C28.7437 33.5718 28.7948 33.5763 28.8568 33.6387ZM28.5314 33.8408C28.5306 33.8957 28.525 33.8924 28.5033 33.8237C28.4661 33.7072 28.4661 33.6175 28.5033 33.7044C28.5192 33.7419 28.532 33.8033 28.5314 33.8408ZM29.1806 33.7219C29.1564 33.737 29.1491 33.7795 29.1625 33.8281C29.1903 33.9296 29.1327 33.8429 29.0993 33.7329C29.0803 33.6701 29.0877 33.6618 29.149 33.6778C29.197 33.6905 29.2076 33.7051 29.1806 33.7219ZM28.8059 33.8252C28.9572 33.7437 29.0782 33.9778 28.9365 34.0776C28.8157 34.1627 28.7867 34.1424 28.7282 33.9324C28.6676 33.7155 28.658 33.6152 28.7121 33.7639C28.7395 33.8394 28.7577 33.8512 28.8059 33.8252ZM28.3968 34.209C28.48 34.2219 28.479 34.2232 28.382 34.2279C28.2797 34.233 28.2769 34.2287 28.2378 34.0159C28.1814 33.7073 28.1957 33.6564 28.2566 33.9498C28.3027 34.1725 28.3157 34.1965 28.3968 34.209ZM27.2036 33.8626C27.3439 33.9797 27.2968 34.2717 27.1272 34.3365C26.9575 34.4014 26.7732 34.268 26.7753 34.0817C26.7776 33.8515 27.0334 33.7206 27.2036 33.8626ZM27.8775 34.2923C27.8741 34.2967 27.8191 34.2431 27.7551 34.1732C27.6788 34.09 27.6708 34.0745 27.732 34.1284L27.8252 34.2108L27.8301 33.9917L27.8351 33.7726L27.8593 34.0284C27.8727 34.1692 27.8808 34.2877 27.8775 34.2923ZM25.561 34.0541C25.5801 34.0774 25.6282 34.0985 25.6678 34.1007C25.7288 34.1039 25.7304 34.1071 25.6781 34.1207C25.5913 34.1432 25.4849 34.0349 25.4904 33.9293L25.4949 33.8408L25.5106 33.9261C25.5191 33.973 25.5418 34.0305 25.561 34.0541ZM26.8608 33.9337C26.7458 34.0989 26.838 34.3012 27.0283 34.3012C27.1086 34.3012 27.1592 34.2784 27.196 34.2254C27.311 34.0602 27.2188 33.8579 27.0283 33.8579C26.9482 33.8579 26.8977 33.8807 26.8608 33.9337ZM27.4905 33.9156C27.53 33.9647 27.5299 33.9691 27.4895 33.9445C27.4501 33.9206 27.4451 33.9553 27.46 34.1512C27.4702 34.2854 27.4661 34.3571 27.4506 34.3183C27.4233 34.2505 27.4067 33.8579 27.4311 33.8579C27.4381 33.8579 27.4648 33.8839 27.4905 33.9156ZM28.7751 33.9324C28.7759 34.0646 28.8218 34.11 28.9079 34.0637C29.0154 34.0059 28.9897 33.8782 28.8677 33.8642C28.7897 33.8551 28.7746 33.8662 28.7751 33.9324ZM26.628 34.0881C26.6195 34.121 26.6125 34.0941 26.6125 34.0284C26.6125 33.9628 26.6195 33.9359 26.628 33.9688C26.6364 34.0016 26.6364 34.0552 26.628 34.0881ZM29.3679 33.9612C29.2807 33.9975 29.1813 34.0016 29.1815 33.9688C29.1816 33.9546 29.2388 33.9409 29.3087 33.938C29.4049 33.9342 29.4193 33.9397 29.3679 33.9612ZM26.4085 34.2188C26.38 34.2698 26.3755 34.2699 26.3564 34.2197C26.3449 34.1896 26.3503 34.1648 26.3683 34.1648C26.3864 34.1648 26.4033 34.1303 26.4057 34.0881L26.4104 34.0114L26.4249 34.0871C26.433 34.1288 26.4255 34.188 26.4085 34.2188ZM21.7968 34.6151C21.6598 34.7529 21.8299 34.97 22.0104 34.8873C22.1716 34.8134 22.1068 34.5742 21.9256 34.5742C21.8773 34.5742 21.8192 34.5926 21.7968 34.6151ZM32.3406 34.6029C32.2803 34.6425 32.3025 34.8476 32.3716 34.8911C32.4608 34.9472 32.6019 34.8912 32.6272 34.79C32.6671 34.6301 32.4824 34.5096 32.3406 34.6029ZM26.1091 35.6C26.2475 35.7549 26.7388 36.464 26.9398 36.7987L27.0161 36.9259L26.8696 36.8691C26.7644 36.8282 26.6113 36.8117 26.3238 36.8101L25.9245 36.8079L25.8877 36.6715C25.6118 35.6525 25.714 35.1581 26.1091 35.6ZM20.8969 35.7278C20.7336 35.9094 20.9739 36.1454 21.1459 35.9723C21.1832 35.9349 21.2137 35.8812 21.2137 35.853C21.2137 35.7042 20.9956 35.618 20.8969 35.7278ZM33.2383 35.7278C33.075 35.9094 33.3153 36.1454 33.4873 35.9723C33.5247 35.9349 33.5551 35.8812 33.5551 35.853C33.5551 35.7042 33.3371 35.618 33.2383 35.7278ZM28.0225 35.7521C28.2525 35.8207 28.295 35.8935 28.3403 36.2942C28.3878 36.7152 28.3678 36.7628 28.0878 36.8933C27.5367 37.1503 27.4671 37.0439 27.6676 36.2511C27.7443 35.9478 27.816 35.6995 27.8269 35.6995C27.8378 35.6995 27.9258 35.7232 28.0225 35.7521ZM10.398 37.9845C10.1008 38.5849 10.0699 38.6337 9.97493 38.6502C9.91859 38.66 9.60656 38.7063 9.28146 38.7531C8.95651 38.7998 8.68179 38.8471 8.67119 38.8581C8.66059 38.869 8.88391 39.1056 9.16748 39.3837L9.68308 39.8894L9.56591 40.5654C9.50144 40.9371 9.44859 41.2614 9.44859 41.2858C9.44859 41.3119 9.71227 41.1932 10.0924 40.9959L10.7362 40.6618L11.3809 40.9964C11.7353 41.1805 12.0254 41.317 12.0254 41.2999C12.0254 41.2829 11.9723 40.9569 11.9074 40.5755L11.7893 39.8822L12.3058 39.3806C12.5898 39.1049 12.8143 38.8708 12.8047 38.8605C12.7951 38.8503 12.5205 38.8026 12.1944 38.7547C11.8683 38.7066 11.554 38.6593 11.4956 38.6492C11.3958 38.6321 11.3712 38.5933 11.0739 37.9838C10.9003 37.6279 10.7493 37.3366 10.7384 37.3366C10.7275 37.3366 10.5743 37.6281 10.398 37.9845ZM43.3537 37.9845C43.1773 38.341 43.0174 38.633 42.9984 38.6336C42.8661 38.6374 41.6537 38.8306 41.6334 38.8511C41.6195 38.8651 41.8402 39.1018 42.124 39.377L42.6401 39.8774L42.5235 40.5425C42.3935 41.2829 42.3924 41.2928 42.4339 41.2928C42.4502 41.2928 42.7398 41.1464 43.0775 40.9677L43.6919 40.6424L44.3043 40.9677C44.6413 41.1464 44.9314 41.2928 44.949 41.2928C44.9918 41.2928 44.9966 41.3318 44.8606 40.5594L44.7405 39.8774L45.257 39.375C45.5411 39.0986 45.763 38.862 45.7501 38.849C45.7312 38.8299 44.5117 38.6372 44.3871 38.6336C44.3681 38.633 44.2082 38.341 44.0318 37.9845C43.8554 37.6281 43.7028 37.3366 43.6928 37.3366C43.6826 37.3366 43.53 37.6281 43.3537 37.9845ZM17.552 43.8506C17.3755 44.207 17.2157 44.4988 17.1967 44.4991C17.0923 44.5007 15.8475 44.7011 15.8295 44.7192C15.8176 44.7312 16.0409 44.9665 16.3256 45.2421L16.8433 45.7435L16.7219 46.4391C16.6551 46.8218 16.6047 47.1466 16.6099 47.1608C16.6153 47.1751 16.9064 47.0342 17.2571 46.8477L17.8945 46.5087L18.5284 46.8469C18.8975 47.0438 19.1664 47.1685 19.1719 47.1453C19.1772 47.1235 19.1277 46.799 19.0617 46.4245L18.9421 45.7435L19.4591 45.2437C19.7434 44.9688 19.9655 44.7329 19.9524 44.7195C19.9329 44.6995 18.7037 44.5014 18.5853 44.4993C18.5663 44.499 18.4065 44.207 18.23 43.8506C18.0536 43.4943 17.9012 43.2026 17.891 43.2026C17.8808 43.2026 17.7284 43.4943 17.552 43.8506ZM36.2002 43.8458L35.8865 44.4892L35.204 44.584C34.8285 44.6362 34.5072 44.6918 34.4898 44.7075C34.4712 44.7243 34.6719 44.9457 34.9723 45.2399L35.4864 45.7435L35.3661 46.4374C35.2999 46.819 35.2534 47.139 35.2628 47.1485C35.2723 47.158 35.5631 47.0177 35.9091 46.8366L36.5383 46.5071L37.1402 46.8244C37.7676 47.1551 37.8273 47.1821 37.827 47.1357C37.8269 47.1202 37.773 46.8006 37.7072 46.4256L37.5877 45.7435L38.101 45.2362C38.4331 44.9082 38.6002 44.7201 38.5742 44.704C38.5522 44.6903 38.2326 44.6364 37.8641 44.5843L37.194 44.4896L36.8755 43.8461C36.7004 43.4922 36.5474 43.2026 36.5356 43.2026C36.5237 43.2026 36.3729 43.4921 36.2002 43.8458ZM26.7741 45.8968C26.5977 46.2534 26.4493 46.5449 26.4442 46.5449C26.369 46.5449 25.0603 46.7571 25.0468 46.7716C25.0365 46.7825 25.2595 47.0163 25.5425 47.2912L26.0571 47.7909L25.9407 48.4724C25.8766 48.8473 25.8281 49.1724 25.8329 49.195C25.8381 49.2196 26.0957 49.1008 26.4743 48.8993L27.1069 48.5625L27.7458 48.8993C28.0971 49.0846 28.3886 49.2248 28.3935 49.2109C28.3983 49.1971 28.3483 48.8715 28.2824 48.4877L28.1626 47.7897L28.6805 47.2902C28.9653 47.0155 29.1901 46.7821 29.1797 46.7714C29.1667 46.7577 27.848 46.5449 27.7764 46.5449C27.7726 46.5449 27.6264 46.2534 27.4513 45.8968C27.2763 45.5405 27.1245 45.2489 27.114 45.2489C27.1034 45.2489 26.9505 45.5405 26.7741 45.8968ZM2.484 55.1089C-0.486326 55.5446 -0.931939 59.7852 1.90567 60.6125C2.64314 60.8273 3.9097 60.6979 4.79338 60.3172L5.05793 60.2031L5.07492 59.4857C5.09554 58.6094 5.12646 58.539 5.52184 58.4643L5.64424 58.4411L5.68127 58.6143C6.21415 61.1138 10.1984 61.4926 11.4446 59.1623C12.6607 56.8884 10.4889 54.4836 7.85111 55.1831C6.51311 55.5379 5.69898 56.5177 5.62769 57.8591L5.60722 58.2428H4.45957H3.31177V58.3412V58.4395L3.64239 58.454C4.27052 58.4813 4.32715 58.5688 4.32816 59.5151L4.32903 60.1565L4.13403 60.2433C1.92281 61.2284 0.0282574 58.8647 1.16371 56.5376C1.96041 54.9047 4.31321 54.9111 4.78612 56.5475C4.83795 56.7272 4.85001 56.7422 4.94163 56.7422H5.04094V56.026C5.04094 55.2336 5.04835 55.2568 4.82126 55.3436C4.75214 55.37 4.63453 55.3521 4.28504 55.2615C3.59201 55.082 3.00541 55.0324 2.484 55.1089ZM38.3921 55.1061C36.6766 55.3789 35.6162 56.687 35.7964 58.3079C36.1093 61.1206 40.4704 61.6406 41.679 59.0094C42.6524 56.8902 40.8244 54.7192 38.3921 55.1061ZM12.195 55.1748C11.9806 55.1879 11.7555 55.2006 11.6948 55.203C11.5961 55.207 11.5846 55.218 11.5846 55.3099V55.4121L11.8814 55.4123C12.5773 55.4123 12.5484 55.3116 12.5618 57.7824C12.576 60.4311 12.5988 60.3481 11.8477 60.3845L11.5168 60.4006V60.4983V60.596H13.2091C14.5687 60.596 14.9536 60.5861 15.1671 60.5452C16.795 60.2332 17.0422 58.2022 15.5282 57.579C15.3682 57.5131 15.3439 57.4934 15.399 57.4741C16.5231 57.0792 16.5173 55.6994 15.39 55.3062C14.9355 55.1476 13.5666 55.0914 12.195 55.1748ZM24.1464 55.1733C23.9414 55.1873 23.7087 55.2008 23.6294 55.2031C23.4929 55.2073 23.4854 55.2129 23.4854 55.3099V55.4121H23.7259C24.013 55.4121 24.1759 55.4787 24.2581 55.6299C24.3499 55.7984 24.3464 59.9773 24.2545 60.1469C24.1765 60.2905 23.9661 60.3896 23.7373 60.3906L23.5654 60.3914L23.6076 59.9907C23.6308 59.7704 23.6592 59.5171 23.6705 59.428C23.6908 59.2685 23.6896 59.266 23.5967 59.266C23.5093 59.2662 23.4952 59.2865 23.4077 59.5358C23.1783 60.1892 23.0875 60.2345 21.9766 60.2493C20.664 60.2668 20.7598 60.3651 20.7452 58.9862L20.7344 57.9699H21.5346C22.579 57.9699 22.6444 57.9996 22.7252 58.5086C22.746 58.6386 22.7573 58.6522 22.8455 58.6522H22.9429V57.8166V56.981H22.8458C22.7567 56.981 22.7469 56.9934 22.7281 57.1309C22.6638 57.6034 22.6046 57.6289 21.5729 57.6289H20.7391V56.5887V55.5485L21.6968 55.5487C22.9211 55.5487 22.9899 55.5814 23.1165 56.2215C23.1568 56.4256 23.1633 56.4352 23.2583 56.4352H23.3577L23.3377 56.1881C23.3266 56.052 23.3078 55.7758 23.2957 55.5741L23.2738 55.2075H21.2097H19.1455V55.3099V55.4121L19.3743 55.4128C19.672 55.4139 19.8589 55.4961 19.9364 55.6603C20.025 55.8482 20.0227 59.9402 19.9337 60.1174C19.8397 60.3049 19.6983 60.3655 19.3112 60.3844L18.9759 60.4006V60.4983V60.596H22.4682H25.9604V60.498V60.4L25.6758 60.3849C25.12 60.3556 25.0988 60.3134 25.0853 59.2079L25.0747 58.3452H25.583H26.0915L26.3397 58.5438C26.476 58.6532 26.9316 59.0791 27.352 59.4902C28.5597 60.6718 28.6839 60.719 30.4767 60.6765L31.453 60.6534V60.5776C31.453 60.5089 31.4312 60.4995 31.2241 60.4787C30.5369 60.4096 30.5646 60.5173 30.5784 57.9777L30.5885 56.1265L32.7753 58.4291C34.9075 60.6743 34.9653 60.7318 35.0893 60.7321L35.2165 60.7326L35.2167 58.3196C35.2169 55.3791 35.1812 55.5766 35.7254 55.5043C35.9916 55.4689 35.9962 55.4666 35.9962 55.3719V55.2757H34.9791H33.962V55.376C33.962 55.4752 33.9645 55.4765 34.2014 55.4999C34.8323 55.5625 34.8124 55.4894 34.8014 57.6983L34.7927 59.4657L32.7947 57.3707L30.7968 55.2757H30.1077H29.4187V55.3746C29.4187 55.4695 29.4273 55.4749 29.6409 55.5123C29.763 55.5336 29.9309 55.5843 30.0138 55.6249L30.1646 55.6985L30.1638 57.8318C30.1629 60.1092 30.1578 60.1863 29.9963 60.3318C29.7048 60.5945 29.1906 60.2942 28.1134 59.2319C27.7031 58.8271 27.2624 58.4031 27.134 58.2895L26.9007 58.083L27.1268 57.9765C28.237 57.4539 28.2815 55.9613 27.2029 55.4292C26.6723 55.1676 25.5752 55.0757 24.1464 55.1733ZM44.6251 55.1752C44.364 55.1884 44.1162 55.2011 44.0742 55.2034C44.0129 55.2068 43.9978 55.2276 43.9978 55.3099V55.4121H44.2216C44.4909 55.4121 44.6563 55.4821 44.7369 55.6299C44.8285 55.7984 44.825 59.9773 44.7331 60.1469C44.6518 60.2967 44.4458 60.3898 44.1928 60.3906C43.998 60.3914 43.9978 60.3915 43.9978 60.4962V60.6011L45.6677 60.5868C47.732 60.569 47.9617 60.5278 48.6765 60.0468C50.1399 59.0624 50.3635 56.8865 49.1076 55.8536C48.3198 55.2057 47.2426 55.0426 44.6251 55.1752ZM16.6705 55.3099C16.6705 55.3995 16.6822 55.4121 16.767 55.4121C17.3138 55.4121 17.3204 55.4435 17.3076 58.0084C17.2958 60.4114 17.3162 60.3116 16.8235 60.3795C16.6825 60.3991 16.6705 60.4085 16.6705 60.4984V60.596H17.7214H18.7725V60.4986C18.7725 60.4055 18.7639 60.4001 18.5877 60.3817C18.0485 60.3258 18.079 60.4692 18.0686 57.9419C18.0581 55.3855 18.0439 55.4569 18.5686 55.4188C18.7673 55.4044 18.7725 55.4014 18.7725 55.3058V55.2075H17.7214H16.6705V55.3099ZM49.8634 55.3064V55.4051L50.1492 55.4172C50.7693 55.4432 50.7449 55.342 50.7449 57.886L50.745 59.9677L50.6687 60.1199C50.5711 60.3145 50.3828 60.3877 49.9736 60.3899L49.694 60.3914V60.4941V60.5966L51.991 60.5878L54.288 60.5791L54.3445 60.0674C54.4268 59.3212 54.4255 59.266 54.3248 59.266C54.2542 59.266 54.2327 59.2961 54.1711 59.4823C53.9368 60.1905 53.8397 60.238 52.62 60.238H51.6959L51.6019 60.1435L51.5079 60.0489L51.4975 59.0072L51.4872 57.9657L52.3281 57.9764C53.3524 57.9894 53.3617 57.9933 53.456 58.456C53.4938 58.6409 53.5018 58.6522 53.5954 58.6522H53.6947V57.8166V56.981H53.5975C53.5054 56.981 53.4979 56.9923 53.4598 57.1874C53.4325 57.3267 53.388 57.4291 53.3226 57.5029L53.2258 57.612L52.3583 57.622L51.4909 57.6323V56.5903V55.5485H52.4436C53.669 55.5485 53.7107 55.5675 53.8506 56.1901C53.9037 56.4269 53.9091 56.4352 54.0062 56.4352C54.0978 56.4352 54.1054 56.4267 54.0891 56.3414C54.0792 56.2899 54.0611 56.0137 54.0486 55.7276L54.0261 55.2075H51.9448H49.8634V55.3064ZM9.21177 55.4263C11.71 56.1446 11.433 60.4752 8.88914 60.4694C7.56376 60.4663 6.54433 59.4007 6.47405 57.9448C6.38679 56.1365 7.64769 54.9766 9.21177 55.4263ZM14.3168 55.3433C15.0342 55.4371 15.4286 55.8367 15.4284 56.4694C15.4283 57.204 14.9952 57.456 13.7292 57.4579L13.3138 57.4585V56.4025V55.3465L13.6104 55.3353C13.7736 55.329 13.9452 55.3211 13.9918 55.3179C14.0386 55.3145 14.1848 55.3261 14.3168 55.3433ZM26.1638 55.4007C26.7902 55.5634 27.0985 55.9446 27.1381 56.6058C27.1997 57.6339 26.659 58.1386 25.4942 58.14L25.0789 58.1405V56.7444V55.3483L25.1891 55.3329C25.3712 55.3077 25.9645 55.349 26.1638 55.4007ZM39.2744 55.3972C40.5783 55.6898 41.3906 57.2604 41.0197 58.7715C40.3379 61.5486 36.6488 60.7324 36.6267 57.7995C36.6139 56.1139 37.7748 55.0607 39.2744 55.3972ZM46.6518 55.3446C48.0202 55.4564 48.7791 56.0667 49.0233 57.2518C49.3109 58.6482 48.5263 60.0423 47.3037 60.3074C46.722 60.4334 45.7788 60.4126 45.6377 60.2706L45.5575 60.19V57.7684V55.347L45.8034 55.3351C45.9385 55.3287 46.0888 55.3204 46.1375 55.3166C46.186 55.3129 46.4174 55.3255 46.6518 55.3446ZM14.5005 57.6648C15.4324 57.8143 15.9571 58.7605 15.5726 59.598C15.2204 60.3649 13.7951 60.6233 13.4235 59.9874L13.3308 59.8288L13.3206 58.7288L13.3103 57.6289L13.7952 57.6292C14.062 57.6294 14.3792 57.6454 14.5005 57.6648ZM13.1193 63.2374C12.432 63.3948 12.0012 63.9108 12.0327 64.5389C12.064 65.1616 12.3829 65.5174 13.619 66.309C14.7512 67.0342 15.0431 67.5635 14.6419 68.1642C14.0736 69.0154 12.6225 68.6979 12.2426 67.6392C12.1621 67.4147 11.948 67.2953 11.9785 67.4919C11.9852 67.5352 12.0219 67.8007 12.0601 68.0821C12.1577 68.8022 12.152 68.7813 12.2498 68.7813C12.2955 68.7813 12.3668 68.7597 12.408 68.7334C12.4747 68.6909 12.5252 68.6972 12.8561 68.789C14.3432 69.2025 15.5399 68.5361 15.4769 67.3297C15.4432 66.6819 15.1389 66.3385 13.8935 65.5434C12.8165 64.8555 12.5248 64.4206 12.795 63.9049C13.1886 63.1535 14.4044 63.3363 14.9207 64.2243C15.0239 64.4017 15.0691 64.4499 15.1322 64.4499C15.2308 64.4499 15.2307 64.4581 15.1447 63.8361C15.1074 63.5663 15.0769 63.3409 15.0769 63.3351C15.0769 63.3072 14.8748 63.3287 14.8565 63.3586C14.8209 63.4164 14.6314 63.3958 14.3479 63.3032C14.0096 63.193 13.4456 63.1627 13.1193 63.2374ZM18.0777 63.2477C18.0911 63.2806 18.1089 63.331 18.1174 63.3599C18.137 63.428 16.4628 68.0237 16.3361 68.2494C16.2163 68.4628 16.0239 68.5765 15.7836 68.5765C15.6237 68.5765 15.6194 68.5793 15.6194 68.6789V68.7813H16.6365H17.6536V68.6789V68.5765L17.4248 68.5764C16.7288 68.5758 16.7156 68.5111 17.1627 67.2951L17.4939 66.3939H18.3821H19.2702L19.6 67.2951C20.0495 68.5238 20.0396 68.5764 19.3574 68.5765H19.0437V68.6789V68.7813H22.176H25.308L25.6341 68.1556C26.0051 67.4442 25.9909 67.4852 25.866 67.4852C25.7872 67.4852 25.7412 67.528 25.5875 67.744C25.1164 68.4067 25.0078 68.4506 23.8807 68.4343C23.1139 68.4232 23.1057 68.4223 23.0415 68.3426C22.9615 68.2432 22.9426 63.9993 23.021 63.7679C23.0836 63.5835 23.2257 63.5292 23.6464 63.5292L23.9938 63.5291V63.4268V63.3244H22.7055H21.4171V63.4268C21.4171 63.5285 21.4182 63.529 21.612 63.5298C21.8649 63.5308 22.071 63.6238 22.1523 63.7737C22.2095 63.879 22.2147 64.0315 22.2246 65.8994C22.2369 68.1975 22.2319 68.2974 22.0951 68.4515L21.9992 68.5596L21.5892 68.571C20.8249 68.5922 20.9538 68.799 19.7896 65.6838L18.8573 63.1885L18.4552 63.1883C18.0857 63.188 18.0552 63.1928 18.0777 63.2477ZM31.792 63.199C31.792 63.2061 31.8075 63.2567 31.8266 63.3113C31.8579 63.4021 30.74 66.5927 30.1915 67.9771C30.0196 68.4113 29.8301 68.5765 29.5046 68.5765C29.3564 68.5765 29.3509 68.5803 29.3509 68.6789V68.7813H30.368H31.3852V68.6832V68.585L31.0843 68.5705C30.4126 68.5381 30.4119 68.5713 31.1314 66.6412L31.2236 66.3939H32.1104H32.9973L33.0941 66.6582C33.1473 66.8036 33.2967 67.209 33.4261 67.5591C33.7699 68.4898 33.7411 68.5764 33.0889 68.5765H32.7753V68.6789V68.7813H35.5156C37.8834 68.7813 38.2995 68.7737 38.5755 68.7262C40.0876 68.4657 41.0792 67.3256 41.0815 65.8452C41.0834 64.5224 40.3146 63.6624 38.8375 63.3355C38.5317 63.2679 36.0285 63.2448 35.3775 63.3037L35.0809 63.3306V63.4299V63.5291H35.3023C35.9158 63.5291 35.893 63.4318 35.8937 66.0529C35.8946 68.6734 35.9264 68.5469 35.2617 68.5714C34.5681 68.5971 34.673 68.7705 33.5234 65.7004L32.5889 63.2051L32.1904 63.1955C31.9713 63.1902 31.792 63.1918 31.792 63.199ZM44.0826 63.2235C40.9516 63.7138 40.4532 67.7236 43.3977 68.7338C45.6731 69.5143 47.9452 67.8707 47.6917 65.6273C47.5131 64.0462 45.86 62.9451 44.0826 63.2235ZM48.27 63.2904C48.0741 63.3046 47.8491 63.318 47.7698 63.3203C47.6333 63.3243 47.6257 63.3298 47.6257 63.4268V63.5291L47.8546 63.5292C48.4614 63.5293 48.4394 63.4351 48.4394 66.0352C48.4393 68.6377 48.4606 68.5416 47.8782 68.5713L47.6257 68.5841V68.6827V68.7813H48.8633H50.1008V68.6824V68.5835L49.815 68.5716C49.2584 68.5482 49.2194 68.4674 49.2193 67.3403V66.4961H49.7247H50.2302L50.4282 66.6565C50.5373 66.7446 50.9724 67.157 51.3954 67.5731C52.5802 68.7385 52.8638 68.8827 53.9744 68.8832L54.4068 68.8835V68.7813C54.4068 68.6896 54.3958 68.6789 54.3014 68.6789C53.7318 68.6789 53.2551 68.3716 52.186 67.3148C51.7383 66.8725 51.2988 66.451 51.2092 66.3783L51.0462 66.2459L51.2771 66.1382C52.4327 65.598 52.4633 64.0859 51.3299 63.5301C50.8282 63.284 49.6439 63.1912 48.27 63.2904ZM0.192622 63.4233V63.522L0.478227 63.5342C1.09968 63.5603 1.07398 63.4513 1.07398 66.0529C1.07398 68.6865 1.11391 68.5437 0.37078 68.5714L0.0230304 68.5843V68.6827V68.7813H2.34403H4.66488L4.68332 68.6704C4.70844 68.5193 4.80369 67.6079 4.80369 67.5185C4.80369 67.3143 4.62974 67.4576 4.52592 67.7475C4.29941 68.3799 4.16496 68.4401 2.98246 68.4401C1.75946 68.4401 1.85384 68.5491 1.85384 67.1394V66.1158L2.69308 66.1269C3.72791 66.1406 3.77147 66.162 3.84306 66.6873C3.86179 66.8248 3.87151 66.8373 3.96067 66.8373H4.05766V65.9847V65.132H3.96067C3.87093 65.132 3.86193 65.144 3.84218 65.2883C3.77815 65.7583 3.7269 65.78 2.68626 65.78H1.85384V64.7228V63.6655H2.80431C4.03312 63.6655 4.07232 63.6826 4.22289 64.2806C4.28155 64.5139 4.29477 64.5361 4.38 64.5463L4.47307 64.5576L4.45027 64.086C4.43779 63.8266 4.41891 63.5491 4.40831 63.4695L4.38915 63.3244H2.29088H0.192622V63.4233ZM5.10875 63.4268C5.10875 63.5285 5.10991 63.529 5.30375 63.5298C5.55669 63.5308 5.76272 63.6238 5.84403 63.7737C5.90124 63.8793 5.90618 64.0326 5.91547 65.9635C5.92839 68.645 5.94814 68.5489 5.37737 68.5714L5.07492 68.5834V68.6823V68.7813H7.03698H8.99905L9.3256 68.1544C9.6976 67.4402 9.68206 67.4852 9.55705 67.4852C9.4798 67.4852 9.43595 67.5223 9.32299 67.6834C8.82554 68.3931 8.76615 68.4204 7.69459 68.4338L6.83908 68.4445L6.7537 68.3586L6.66847 68.2727V66.0704C6.66847 63.3422 6.61867 63.5291 7.34539 63.5291H7.68559V63.4268V63.3244H6.39724H5.10875V63.4268ZM24.5025 63.4268C24.5025 63.5234 24.51 63.5291 24.6374 63.5291C25.0946 63.5291 25.0666 63.4785 26.2316 66.4043L27.2319 68.9161L27.4719 68.9168L27.7119 68.9177L28.6045 66.59C29.7681 63.5553 29.7819 63.5304 30.3087 63.5293C30.3897 63.529 30.402 63.5156 30.402 63.4268V63.3244H29.3679H28.3338V63.4218C28.3338 63.5193 28.334 63.5194 28.5998 63.5377C29.0258 63.567 29.1731 63.6818 29.1357 63.9554C29.118 64.086 27.7116 67.8439 27.6585 67.9028C27.6261 67.9389 26.061 64.0097 26.0616 63.8935C26.0626 63.6764 26.2309 63.5768 26.6576 63.5404C26.9072 63.5193 26.9097 63.5181 26.9097 63.4217V63.3244H25.7062H24.5025V63.4268ZM38.1315 63.5009C38.9787 63.6187 39.6281 64.0543 39.9536 64.7228C40.6982 66.2521 39.9416 68.1465 38.446 68.4971C38.0313 68.5943 36.9211 68.5881 36.7873 68.4877L36.6913 68.4157L36.6826 65.9397L36.674 63.4636L36.954 63.4521C37.3249 63.4369 37.8188 63.4573 38.1315 63.5009ZM45.0421 63.5326C46.3297 63.8731 47.101 65.3254 46.7923 66.828C46.1723 69.8478 42.1516 68.9069 42.3135 65.78C42.3989 64.1324 43.5927 63.149 45.0421 63.5326ZM50.2036 63.4963C51.0012 63.6425 51.4175 64.2653 51.2907 65.1224C51.1599 66.0071 50.5847 66.3548 49.3463 66.2975L49.2193 66.2915V64.8783V63.4649L49.3463 63.4505C49.5049 63.4324 49.9987 63.4588 50.2036 63.4963ZM18.7522 65.0248C18.9312 65.5003 19.0777 65.9032 19.0777 65.9199C19.0777 65.937 18.7641 65.9505 18.3696 65.9505H17.6613L17.9796 65.0723C18.377 63.976 18.3654 64.003 18.4001 64.0918C18.4147 64.1293 18.5731 64.5491 18.7522 65.0248ZM32.4651 64.9811C32.6581 65.498 32.8091 65.928 32.8006 65.9365C32.7921 65.9449 32.473 65.9478 32.0913 65.9427L31.3974 65.9335L31.7389 64.9873C31.9266 64.4669 32.0879 64.041 32.0972 64.0411C32.1065 64.0411 32.272 64.4641 32.4651 64.9811Z" fill="#111E60"/>
<line x1="68.6887" y1="1.54216e-08" x2="68.6887" y2="70.0758" stroke="#111E60" stroke-width="0.70561"/>
<path d="M90.2563 26.4015L97.175 22.288C97.7881 21.9249 98.5656 22.3667 98.5656 23.0792V47.0583C98.5656 47.5652 98.9766 47.9796 99.4869 47.9796H129.135C129.641 47.9796 130.056 48.3906 130.056 48.901V54.2818C130.056 54.7887 129.645 55.2031 129.135 55.2031H90.729C90.2221 55.2031 89.8076 54.7921 89.8076 54.2818V27.1893C89.8076 26.8673 89.9789 26.5659 90.2563 26.4015Z" fill="#B3B3FF"/>
<path d="M104.368 18.3833L109.327 15.4274C109.701 15.2048 110.167 15.2013 110.547 15.4171L129.45 26.2027C129.827 26.4185 130.06 26.8193 130.06 27.2543V42.3898C130.06 43.0576 129.518 43.5988 128.851 43.5988H104.984C104.317 43.5988 103.775 43.0576 103.775 42.3898V19.4245C103.775 18.9963 104.001 18.6025 104.368 18.3833Z" fill="#3333FF"/>
<path d="M154.5 55.0945C152.844 55.0945 151.26 54.8605 149.748 54.3925C148.236 53.9245 146.85 53.2225 145.59 52.2865C144.33 51.3505 143.232 50.2165 142.296 48.8845C141.36 47.5165 140.622 45.9325 140.082 44.1325L146.94 41.4325C147.444 43.3765 148.326 44.9965 149.586 46.2925C150.846 47.5525 152.502 48.1825 154.554 48.1825C155.31 48.1825 156.03 48.0925 156.714 47.9125C157.434 47.6965 158.064 47.4085 158.604 47.0485C159.18 46.6525 159.63 46.1665 159.954 45.5905C160.278 45.0145 160.44 44.3485 160.44 43.5925C160.44 42.8725 160.314 42.2245 160.062 41.6485C159.81 41.0725 159.378 40.5325 158.766 40.0285C158.19 39.5245 157.416 39.0385 156.444 38.5705C155.508 38.1025 154.338 37.6165 152.934 37.1125L150.558 36.2485C149.514 35.8885 148.452 35.4025 147.372 34.7905C146.328 34.1785 145.374 33.4405 144.51 32.5765C143.646 31.7125 142.926 30.7045 142.35 29.5525C141.81 28.3645 141.54 27.0325 141.54 25.5565C141.54 24.0445 141.828 22.6405 142.404 21.3445C143.016 20.0125 143.862 18.8605 144.942 17.8885C146.058 16.8805 147.372 16.1065 148.884 15.5665C150.432 14.9905 152.142 14.7025 154.014 14.7025C155.958 14.7025 157.632 14.9725 159.036 15.5125C160.476 16.0165 161.682 16.6825 162.654 17.5105C163.662 18.3025 164.472 19.1845 165.084 20.1565C165.696 21.1285 166.146 22.0465 166.434 22.9105L160.008 25.6105C159.648 24.5305 158.982 23.5585 158.01 22.6945C157.074 21.8305 155.778 21.3985 154.122 21.3985C152.538 21.3985 151.224 21.7765 150.18 22.5325C149.136 23.2525 148.614 24.2065 148.614 25.3945C148.614 26.5465 149.118 27.5365 150.126 28.3645C151.134 29.1565 152.736 29.9305 154.932 30.6865L157.362 31.4965C158.91 32.0365 160.314 32.6665 161.574 33.3865C162.87 34.0705 163.968 34.8985 164.868 35.8705C165.804 36.8425 166.506 37.9585 166.974 39.2185C167.478 40.4425 167.73 41.8645 167.73 43.4845C167.73 45.5005 167.316 47.2465 166.488 48.7225C165.696 50.1625 164.67 51.3505 163.41 52.2865C162.15 53.2225 160.728 53.9245 159.144 54.3925C157.56 54.8605 156.012 55.0945 154.5 55.0945ZM176.705 15.5665H183.995V54.2305H176.705V15.5665ZM208.905 55.0945C206.637 55.0945 204.567 54.7345 202.695 54.0145C200.859 53.2585 199.293 52.1785 197.997 50.7745C196.701 49.3705 195.693 47.6785 194.973 45.6985C194.253 43.6825 193.893 41.3965 193.893 38.8405V15.5665H201.183V39.2725C201.183 40.5685 201.345 41.7565 201.669 42.8365C201.993 43.9165 202.479 44.8525 203.127 45.6445C203.775 46.4365 204.585 47.0665 205.557 47.5345C206.529 47.9665 207.645 48.1825 208.905 48.1825C210.201 48.1825 211.335 47.9665 212.307 47.5345C213.279 47.0665 214.089 46.4365 214.737 45.6445C215.385 44.8525 215.871 43.9165 216.195 42.8365C216.519 41.7565 216.681 40.5685 216.681 39.2725V15.5665H223.971V38.8405C223.971 41.2525 223.611 43.4665 222.891 45.4825C222.207 47.4625 221.199 49.1725 219.867 50.6125C218.571 52.0165 216.987 53.1145 215.115 53.9065C213.279 54.6985 211.209 55.0945 208.905 55.0945ZM245.676 55.0945C244.02 55.0945 242.436 54.8605 240.924 54.3925C239.412 53.9245 238.026 53.2225 236.766 52.2865C235.506 51.3505 234.408 50.2165 233.472 48.8845C232.536 47.5165 231.798 45.9325 231.258 44.1325L238.116 41.4325C238.62 43.3765 239.502 44.9965 240.762 46.2925C242.022 47.5525 243.678 48.1825 245.73 48.1825C246.486 48.1825 247.206 48.0925 247.89 47.9125C248.61 47.6965 249.24 47.4085 249.78 47.0485C250.356 46.6525 250.806 46.1665 251.13 45.5905C251.454 45.0145 251.616 44.3485 251.616 43.5925C251.616 42.8725 251.49 42.2245 251.238 41.6485C250.986 41.0725 250.554 40.5325 249.942 40.0285C249.366 39.5245 248.592 39.0385 247.62 38.5705C246.684 38.1025 245.514 37.6165 244.11 37.1125L241.734 36.2485C240.69 35.8885 239.628 35.4025 238.548 34.7905C237.504 34.1785 236.55 33.4405 235.686 32.5765C234.822 31.7125 234.102 30.7045 233.526 29.5525C232.986 28.3645 232.716 27.0325 232.716 25.5565C232.716 24.0445 233.004 22.6405 233.58 21.3445C234.192 20.0125 235.038 18.8605 236.118 17.8885C237.234 16.8805 238.548 16.1065 240.06 15.5665C241.608 14.9905 243.318 14.7025 245.19 14.7025C247.134 14.7025 248.808 14.9725 250.212 15.5125C251.652 16.0165 252.858 16.6825 253.83 17.5105C254.838 18.3025 255.648 19.1845 256.26 20.1565C256.872 21.1285 257.322 22.0465 257.61 22.9105L251.184 25.6105C250.824 24.5305 250.158 23.5585 249.186 22.6945C248.25 21.8305 246.954 21.3985 245.298 21.3985C243.714 21.3985 242.4 21.7765 241.356 22.5325C240.312 23.2525 239.79 24.2065 239.79 25.3945C239.79 26.5465 240.294 27.5365 241.302 28.3645C242.31 29.1565 243.912 29.9305 246.108 30.6865L248.538 31.4965C250.086 32.0365 251.49 32.6665 252.75 33.3865C254.046 34.0705 255.144 34.8985 256.044 35.8705C256.98 36.8425 257.682 37.9585 258.15 39.2185C258.654 40.4425 258.906 41.8645 258.906 43.4845C258.906 45.5005 258.492 47.2465 257.664 48.7225C256.872 50.1625 255.846 51.3505 254.586 52.2865C253.326 53.2225 251.904 53.9245 250.32 54.3925C248.736 54.8605 247.188 55.0945 245.676 55.0945Z" fill="#3333FF"/>
</svg>
